# Strawberry URP Gazebo mesh generated by export_gazebo_assets.py
mtllib plant_variant_18.mtl

o field_export_plant_variant_18
v 0.000000000 0.000000000 0.025000000
v 0.000000000 0.026450338 0.020225426
v 0.000000000 0.042797547 0.007725425
v 0.000000000 0.042797547 -0.007725425
v 0.000000000 0.026450338 -0.020225426
v 0.000000000 0.000000000 -0.025000000
v 0.018703211 0.018703211 0.020225426
v 0.030262435 0.030262435 0.007725425
v 0.030262435 0.030262435 -0.007725425
v 0.018703211 0.018703211 -0.020225426
v 0.026450334 0.000000000 0.020225426
v 0.042797547 0.000000000 0.007725425
v 0.042797547 0.000000000 -0.007725425
v 0.026450334 0.000000000 -0.020225426
v 0.018703211 -0.018703211 0.020225426
v 0.030262435 -0.030262435 0.007725425
v 0.030262435 -0.030262435 -0.007725425
v 0.018703211 -0.018703211 -0.020225426
v 0.000000000 -0.026450334 0.020225426
v 0.000000000 -0.042797547 0.007725425
v 0.000000000 -0.042797547 -0.007725425
v 0.000000000 -0.026450334 -0.020225426
v -0.018703211 -0.018703211 0.020225426
v -0.030262435 -0.030262435 0.007725425
v -0.030262435 -0.030262435 -0.007725425
v -0.018703211 -0.018703211 -0.020225426
v -0.026450334 0.000000000 0.020225426
v -0.042797547 0.000000000 0.007725425
v -0.042797547 0.000000000 -0.007725425
v -0.026450334 0.000000000 -0.020225426
v -0.018703211 0.018703211 0.020225426
v -0.030262435 0.030262435 0.007725425
v -0.030262435 0.030262435 -0.007725425
v -0.018703211 0.018703211 -0.020225426
v 0.003134355 -0.002956353 0.005516902
v -0.153800279 0.145066619 0.173998430
v -0.002592377 -0.005888164 0.002758466
v -0.159527004 0.142134801 0.171240002
v -0.005726710 -0.002931818 -0.002758421
v -0.162661344 0.145091146 0.165723115
v -0.003134310 0.002956353 -0.005516857
v -0.160068944 0.150979310 0.162964672
v 0.002592422 0.005888164 -0.002758421
v -0.154342204 0.153911129 0.165723115
v 0.005726755 0.002931818 0.002758466
v -0.151207879 0.150954783 0.171240002
v -0.191960052 0.137482077 0.181492507
v -0.148865089 0.183118954 0.182713658
v -0.199302986 0.143090427 0.186959803
v -0.155090541 0.189964652 0.188440293
v -0.215990826 0.138911396 0.191281632
v -0.152039826 0.206712529 0.193423077
v -0.218555719 0.149847463 0.194729954
v -0.163211182 0.208523974 0.196583211
v -0.233271480 0.148059383 0.196269691
v -0.162342250 0.223258853 0.198644802
v -0.232459813 0.162897408 0.196774662
v -0.177115262 0.221573934 0.198627919
v -0.243798986 0.165011302 0.195371032
v -0.179847986 0.232812434 0.197512478
v -0.241015226 0.182240292 0.193093896
v -0.196802795 0.229114503 0.194574386
v -0.247562289 0.189673960 0.189614087
v -0.204504535 0.235342562 0.190846816
v -0.240368605 0.226242408 0.180760041
v -0.228706643 0.217463389 0.181666195
v -0.157400802 0.147761226 0.167151958
v -0.230524182 0.215899751 0.179588810
v -0.156288460 0.148434475 0.170045629
v -0.150992274 0.194027916 0.181207627
v -0.102463052 0.200566262 0.180947691
v -0.152654573 0.201467007 0.186095089
v -0.102836430 0.208213955 0.186082631
v -0.164789945 0.207461104 0.190108001
v -0.092730582 0.217220202 0.190089971
v -0.160951823 0.215585589 0.192688048
v -0.098590143 0.224031314 0.192672431
v -0.170738399 0.221828133 0.193677813
v -0.090816036 0.232652128 0.193657815
v -0.162959650 0.230411574 0.193013281
v -0.100597963 0.238857299 0.192997664
v -0.168805584 0.237113073 0.190758452
v -0.096746221 0.246872172 0.190740421
v -0.158678040 0.245944977 0.187070772
v -0.108859897 0.252691895 0.187058300
v -0.159023672 0.253345221 0.182420492
v -0.110498413 0.259903431 0.182206899
v -0.136791214 0.271096259 0.170444772
v -0.125809669 0.182199299 0.167592883
v -0.136570483 0.259305090 0.180552214
v -0.123403959 0.182204068 0.169660836
v -0.133446023 0.259772927 0.180264533
v -0.206090674 0.090243645 0.175929010
v -0.202308431 0.139030650 0.177786514
v -0.213600367 0.090031847 0.179219842
v -0.209777176 0.140118286 0.181245089
v -0.221940905 0.079312593 0.181494758
v -0.216410860 0.151760012 0.184424192
v -0.229044661 0.084684901 0.183504254
v -0.224258855 0.147382423 0.186039448
v -0.237181842 0.076394930 0.183939531
v -0.231048375 0.156747714 0.187188625
v -0.243958414 0.085801929 0.184032574
v -0.239172608 0.148499459 0.186567768
v -0.251768410 0.081546649 0.182551399
v -0.246238366 0.153994069 0.185480833
v -0.258341640 0.093382940 0.180804804
v -0.254518449 0.143469363 0.182830065
v -0.265709341 0.094720468 0.177885696
v -0.261970520 0.143499762 0.179975599
v -0.278635293 0.120574974 0.171666980
v -0.189348444 0.112112209 0.168264538
v -0.266719192 0.120126165 0.181848779
v -0.189063862 0.115258671 0.168552220
v -0.267241597 0.119464643 0.178790435
v 0.003705606 0.002334308 0.005460761
v -0.149267793 -0.094030038 0.150459170
v 0.005083971 -0.003962137 0.002730384
v -0.147889435 -0.100326486 0.147728801
v 0.001378387 -0.006296437 -0.002730355
v -0.151595011 -0.102660790 0.142268062
v -0.003705561 -0.002334293 -0.005460732
v -0.156678960 -0.098698646 0.139537692
v -0.005083926 0.003962152 -0.002730355
v -0.158057332 -0.092402197 0.142268062
v -0.001378343 0.006296452 0.002730384
v -0.154351741 -0.090067893 0.147728801
v -0.152325645 -0.132595778 0.156758219
v -0.185722321 -0.079487763 0.154405072
v -0.159893304 -0.138170794 0.161048129
v -0.194225654 -0.083669983 0.158795565
v -0.160282388 -0.155260950 0.165146574
v -0.209942371 -0.076428339 0.161888346
v -0.171695486 -0.154936105 0.167463124
v -0.214672267 -0.086712703 0.164643377
v -0.173736721 -0.169583440 0.169213831
v -0.228815496 -0.082148746 0.165600061
v -0.187901437 -0.165083602 0.168946743
v -0.230878219 -0.096860200 0.166126996
v -0.192694291 -0.175555930 0.168113813
v -0.242354259 -0.096723311 0.164855585
v -0.208511159 -0.168613270 0.165498987
v -0.242843509 -0.114112452 0.163246408
v -0.217104673 -0.173157170 0.162631527
v -0.250564665 -0.120090738 0.160298392
v -0.250156134 -0.157274857 0.153919324
v -0.236864522 -0.150478005 0.158463567
v -0.152972564 -0.096748047 0.143299639
v -0.153033391 -0.095959805 0.146371931
v -0.238176182 -0.148996547 0.155795187
v -0.196444929 -0.079469904 0.150184661
v -0.190644681 -0.030944040 0.153269246
v -0.204177052 -0.079375021 0.152679235
v -0.198278561 -0.029558145 0.155974001
v -0.213126540 -0.089723885 0.153944030
v -0.204594672 -0.017666359 0.158709735
v -0.220107108 -0.084056586 0.155412465
v -0.212723449 -0.021696486 0.159536809
v -0.228614241 -0.091965541 0.155028671
v -0.219151393 -0.012045205 0.160314396
v -0.234951958 -0.082259841 0.154821858
v -0.227568313 -0.019899737 0.158946201
v -0.242816254 -0.086130403 0.152762830
v -0.234284386 -0.014072869 0.157528535
v -0.248711631 -0.073984787 0.150907427
v -0.242813140 -0.024167914 0.154202193
v -0.255778581 -0.072283417 0.147777528
v -0.250038207 -0.023752864 0.150872335
v -0.267075151 -0.045860410 0.141468391
v -0.178104162 -0.057758559 0.145371899
v -0.255318522 -0.047822006 0.158365682
v -0.177916884 -0.055028461 0.144494176
v -0.255703539 -0.047072168 0.155307338
v -0.110019542 -0.157878637 0.159645244
v -0.156318337 -0.142065570 0.157583490
v -0.111989491 -0.165060431 0.165005997
v -0.159539580 -0.148844972 0.163157269
v -0.103927888 -0.175661594 0.169840008
v -0.172706604 -0.152206779 0.167165935
v -0.111061499 -0.181096435 0.172590494
v -0.170584068 -0.160798147 0.170276284
v -0.105133817 -0.191002756 0.174183816
v -0.181417570 -0.164988592 0.171217948
v -0.115912840 -0.195229724 0.173403904
v -0.175435394 -0.174931437 0.171089694
v -0.113630563 -0.203928173 0.171466842
v -0.182409286 -0.180473357 0.168792769
v -0.126543507 -0.207460284 0.167446241
v -0.174093589 -0.191244841 0.165597528
v -0.129437640 -0.214451760 0.162831247
v -0.175734475 -0.198633611 0.160796329
v -0.156940937 -0.220887795 0.149891958
v -0.152675897 -0.209878728 0.158365682
v -0.127698541 -0.136482850 0.143307343
v -0.153489709 -0.210098341 0.155307338
v -0.128208607 -0.135811791 0.146365702
v -0.000083758 0.004781745 0.005111568
v 0.003554135 -0.202905178 0.199457526
v 0.006019369 0.002497047 0.002555788
v 0.009657262 -0.205189869 0.196901754
v 0.006103127 -0.002284691 -0.002555758
v 0.009741020 -0.209971607 0.191790208
v 0.000083758 -0.004781730 -0.005111538
v 0.003721651 -0.212468654 0.189234436
v -0.006019369 -0.002497032 -0.002555758
v -0.002381476 -0.210183948 0.191790208
v -0.006103127 0.002284706 0.002555788
v -0.002465234 -0.205402210 0.196901754
v 0.035124596 -0.225430042 0.206442192
v -0.027633063 -0.226469487 0.205126762
v 0.036029257 -0.234582603 0.211164117
v -0.028401932 -0.235711202 0.209951028
v 0.050498590 -0.243602872 0.215454623
v -0.042697787 -0.245235339 0.213699952
v 0.044335820 -0.253076285 0.218292385
v -0.036318287 -0.254489064 0.216773853
v 0.055824161 -0.262342840 0.220275402
v -0.047541663 -0.264153421 0.218329251
v 0.044625774 -0.272112727 0.220602319
v -0.036028333 -0.273525476 0.219083786
v 0.051078506 -0.281675726 0.220074505
v -0.042117871 -0.283308208 0.218319833
v 0.036899135 -0.291691899 0.218093932
v -0.027532056 -0.292820483 0.216880828
v 0.036281660 -0.301513076 0.215638682
v -0.026472138 -0.302644610 0.214318186
v 0.005427582 -0.321872413 0.208222508
v 0.005061364 -0.207606807 0.194805577
v 0.006458127 -0.307476997 0.207811087
v 0.001904616 -0.207784429 0.193786338
v 0.004511430 -0.307831347 0.205142707
v -0.032806017 -0.234150067 0.208179519
v -0.071386129 -0.204038098 0.206512198
v -0.036714118 -0.239962816 0.213451236
v -0.076335266 -0.209054545 0.211963788
v -0.032321583 -0.252353758 0.218257919
v -0.089631513 -0.207646549 0.216106400
v -0.040677395 -0.254958808 0.221322730
v -0.090274617 -0.216268241 0.219460756
v -0.038246799 -0.266155660 0.223383486
v -0.101810306 -0.216570064 0.220997185
v -0.049837455 -0.266598225 0.223459154
v -0.099434674 -0.227907658 0.221597180
v -0.050641701 -0.275632590 0.222530767
v -0.107951626 -0.230925381 0.220379248
v -0.064194292 -0.274881065 0.219860509
v -0.103815436 -0.243972793 0.218373060
v -0.069448791 -0.280711651 0.216647893
v -0.108046547 -0.250622749 0.215021282
v -0.098234862 -0.278341949 0.207170963
v -0.042559147 -0.209304214 0.193457305
v -0.090195812 -0.270882189 0.206416637
v -0.044243634 -0.207586661 0.195525259
v -0.092713803 -0.268974036 0.206128955
v 0.079488441 -0.201692343 0.202933341
v 0.042099547 -0.232984766 0.207494065
v 0.085001737 -0.206608474 0.207197070
v 0.046652019 -0.238747388 0.212071374
v 0.098552749 -0.204838276 0.209741026
v 0.043081872 -0.251325548 0.216791451
v 0.099752963 -0.213472292 0.212722123
v 0.051747300 -0.253703356 0.218823731
v 0.111380570 -0.213427454 0.213114589
v 0.049856801 -0.264987350 0.220934361
v 0.109423533 -0.224829137 0.213925824
v 0.061417878 -0.265060186 0.220027417
v 0.117893904 -0.227551982 0.212148398
v 0.062423028 -0.274039239 0.219198853
v 0.114013471 -0.240679026 0.210808143
v 0.075663753 -0.272817910 0.215682462
v 0.118154094 -0.247113228 0.207680181
v 0.080796242 -0.278435469 0.212271839
v 0.108668894 -0.274937510 0.201572090
v 0.101574421 -0.265784115 0.207120299
v 0.051573779 -0.206251785 0.193457291
v 0.049541783 -0.207539618 0.195525229
v 0.099642873 -0.267724514 0.205517814
v -0.003194079 0.002397228 0.005749036
v 0.140675828 -0.105580360 0.130705163
v 0.002041876 0.006047148 0.002874523
v 0.145911783 -0.101930439 0.127830654
v 0.005235948 0.003649928 -0.002874501
v 0.149105847 -0.104327664 0.122081622
v 0.003194049 -0.002397206 -0.005749017
v 0.147063956 -0.110374793 0.119207114
v -0.002041906 -0.006047126 -0.002874501
v 0.141828001 -0.114024714 0.122081622
v -0.005235977 -0.003649905 0.002874523
v 0.138633937 -0.111627497 0.127830654
v 0.178313226 -0.094357871 0.134385765
v 0.140573770 -0.144518524 0.135380447
v 0.186534315 -0.099398889 0.138276175
v 0.147851855 -0.150939584 0.139436468
v 0.202909559 -0.093631431 0.141200364
v 0.146957368 -0.168182388 0.142878667
v 0.206858784 -0.104391061 0.143381804
v 0.158436596 -0.168909028 0.144834250
v 0.221361548 -0.101056360 0.144002572
v 0.159303948 -0.183742195 0.145864010
v 0.222198725 -0.115895845 0.143745214
v 0.173776522 -0.180413812 0.145197660
v 0.233589411 -0.116641000 0.141927183
v 0.177637219 -0.191191941 0.143605486
v 0.232554108 -0.133913234 0.139366403
v 0.193871632 -0.185453951 0.140526697
v 0.239619225 -0.140340716 0.135800377
v 0.201953560 -0.190554351 0.136781693
v 0.235915303 -0.176943898 0.127154291
v 0.223054886 -0.168908015 0.137734011
v 0.144927889 -0.106611446 0.124738157
v 0.224846169 -0.166843101 0.136124223
v 0.143003926 -0.109117202 0.125027150
v 0.142533019 -0.154550284 0.136453226
v 0.095128812 -0.166455925 0.133446008
v 0.144799381 -0.161802009 0.140366346
v 0.096132614 -0.174071252 0.137471363
v 0.157337621 -0.166454241 0.144184306
v 0.086943679 -0.184201062 0.139996886
v 0.154330671 -0.174989358 0.145934790
v 0.093410261 -0.190347821 0.142310888
v 0.164699420 -0.180112004 0.147206321
v 0.086624190 -0.199795336 0.142561957
v 0.157977030 -0.189501703 0.146141604
v 0.097056627 -0.204860181 0.142517716
v 0.164630353 -0.195478931 0.144597962
v 0.094236404 -0.213225752 0.140410528
v 0.155738473 -0.205339044 0.140986815
v 0.107071705 -0.217608303 0.138091847
v 0.157121465 -0.212579265 0.137053818
v 0.109709695 -0.224529877 0.134389699
v 0.137472048 -0.232616007 0.126207739
v 0.133532375 -0.221379444 0.137730464
v 0.116036125 -0.145740941 0.123265050
v 0.136236683 -0.220951900 0.136127979
v 0.115242951 -0.145455673 0.126323387
v 0.185884684 -0.046191797 0.139116868
v 0.187625691 -0.095026746 0.135948598
v 0.193234056 -0.045574725 0.144113779
v 0.195048511 -0.095724449 0.141100138
v 0.200217471 -0.034360949 0.148916170
v 0.202841967 -0.106899917 0.144557089
v 0.207809776 -0.039140910 0.151404411
v 0.210081071 -0.101917654 0.147631973
v 0.214936107 -0.030109514 0.153213471
v 0.217846990 -0.110563830 0.148378730
v 0.222733527 -0.038660999 0.152403563
v 0.225004822 -0.101437747 0.148631111
v 0.230064973 -0.033401132 0.150914490
v 0.232689470 -0.105940104 0.146555394
v 0.238005310 -0.044135004 0.147111237
v 0.239819765 -0.094284728 0.144097596
v 0.245602921 -0.044269595 0.143053725
v 0.247353718 -0.093103960 0.139905572
v 0.261563867 -0.067445897 0.130963475
v 0.171816230 -0.069653444 0.126513138
v 0.249818921 -0.068317644 0.138513133
v 0.172304392 -0.070889600 0.123632595
v 0.250216484 -0.067049436 0.135632589
v -0.004883341 -0.001861952 0.004656889
v 0.168633908 0.064297780 0.213063508
v -0.004601449 0.004733421 0.002328455
v 0.168915808 0.070893154 0.210735068
v 0.000281863 0.006595362 -0.002328426
v 0.173799127 0.072755098 0.206078187
v 0.004883282 0.001861928 -0.004656859
v 0.178400546 0.068021663 0.203749746
v 0.004601389 -0.004733443 -0.002328426
v 0.178118646 0.061426289 0.206078187
v -0.000281923 -0.006595384 0.002328455
v 0.173235327 0.059564348 0.210735068
v 0.179677084 0.102929160 0.215984508
v 0.201918170 0.044454753 0.221219525
v 0.188048273 0.107386813 0.220007658
v 0.210925862 0.047385667 0.225539535
v 0.191683173 0.124431252 0.222218022
v 0.224774420 0.037642702 0.230219603
v 0.202717006 0.122171745 0.225168824
v 0.231354892 0.047063109 0.232093543
v 0.207564995 0.136248887 0.225454196
v 0.244267121 0.039990097 0.234328896
v 0.220552772 0.129094720 0.226496905
v 0.249190643 0.053986076 0.233421639
v 0.227354690 0.138277188 0.224874198
v 0.260445952 0.051488638 0.232875779
v 0.241555542 0.128155723 0.223991901
v 0.264433146 0.068154573 0.229523793
v 0.250971258 0.130594447 0.221238256
v 0.273282647 0.072150759 0.226491287
v 0.280485690 0.107734263 0.216388807
v 0.173077226 0.066786811 0.209970728
v 0.267152637 0.100822963 0.221732914
v 0.266809672 0.102500014 0.219424486
v 0.173848093 0.065739736 0.207077056
v 0.211704686 0.041742854 0.215282291
v 0.196523339 -0.004622853 0.219484806
v 0.218840361 0.040435858 0.218897760
v 0.203291282 -0.007164827 0.223344088
v 0.229295135 0.049074359 0.221054912
v 0.206804201 -0.019777555 0.227486297
v 0.234803379 0.042363752 0.223800763
v 0.215339243 -0.017222151 0.229366615
v 0.244607657 0.048574738 0.224397093
v 0.219662532 -0.027790204 0.231530249
v 0.248974591 0.037902202 0.225594729
v 0.229510456 -0.021683700 0.231160566
v 0.257637560 0.040151261 0.224642828
v 0.235146627 -0.028700657 0.231074199
v 0.261353999 0.027051207 0.224279627
v 0.245804906 -0.020549480 0.228725955
v 0.268369734 0.023883021 0.222298726
v 0.253197134 -0.022463692 0.226717889
v 0.275253117 -0.004554386 0.219185844
v 0.190637231 0.023619760 0.208864152
v 0.263860077 -0.002925574 0.221865118
v 0.189804599 0.020568080 0.207849547
v 0.264854819 -0.001196374 0.219208837
v 0.142737821 0.134943292 0.217389032
v 0.185053065 0.110306874 0.218015373
v 0.145764053 0.141559571 0.221145019
v 0.189222604 0.116298869 0.221932799
v 0.139687419 0.153533638 0.224172711
v 0.202547953 0.116995350 0.225312188
v 0.147580683 0.157449305 0.226550654
v 0.201981515 0.125828296 0.227536768
v 0.143628165 0.168319285 0.227706715
v 0.213347957 0.127793998 0.228970528
v 0.155039698 0.170330063 0.228098601
v 0.209440529 0.138709053 0.229084715
v 0.154605433 0.179295152 0.227268592
v 0.217465967 0.142756879 0.228408068
v 0.168141067 0.180201858 0.225788847
v 0.211599618 0.154941157 0.226576611
v 0.172573507 0.186450273 0.223406792
v 0.214889586 0.161826342 0.224288180
v 0.201549321 0.187314764 0.217706874
v 0.155738369 0.110610463 0.208780095
v 0.195540890 0.177517548 0.221773878
v 0.158169225 0.109353699 0.207902357
v 0.196381971 0.177572876 0.218715534
v 0.000011435 -0.004640289 0.005240984
v -0.000489696 0.198722214 0.185295969
v -0.006056444 -0.002335086 0.002620503
v -0.006557574 0.201027408 0.182675481
v -0.006067879 0.002305180 -0.002620474
v -0.006569008 0.205667675 0.177434504
v -0.000011435 0.004640259 -0.005240954
v -0.000512565 0.208002746 0.174814016
v 0.006056444 0.002335057 -0.002620474
v 0.005555314 0.205697551 0.177434504
v 0.006067879 -0.002305210 0.002620503
v 0.005566749 0.201057285 0.182675481
v -0.032024808 0.222239822 0.188111082
v 0.030752009 0.222332835 0.188667685
v -0.032916632 0.231668711 0.191498041
v 0.031532254 0.231827512 0.192160979
v -0.047355942 0.241129592 0.194205239
v 0.045866035 0.241359293 0.195164129
v -0.041127462 0.250667840 0.196302757
v 0.039548803 0.250866622 0.197132602
v -0.052521452 0.260192186 0.197301894
v 0.050872765 0.260446966 0.198365420
v -0.041187804 0.269803077 0.197585344
v 0.039488461 0.270001858 0.198415190
v -0.047476627 0.279400051 0.196770415
v 0.045745350 0.279629737 0.197729304
v -0.033097655 0.289074391 0.195345819
v 0.031351231 0.289233208 0.196008742
v -0.032259118 0.298736989 0.193110555
v 0.030514047 0.298856407 0.193836331
v -0.000823618 0.318151534 0.187768579
v -0.002228900 0.203384355 0.179836988
v -0.002015889 0.303216875 0.193239644
v 0.000930166 0.203357473 0.180125982
v 0.000368086 0.303472042 0.191162243
v 0.037017845 0.230408058 0.188124582
v 0.075118035 0.199681908 0.186648279
v 0.041252032 0.236575112 0.191062242
v 0.080405042 0.205072835 0.189641789
v 0.037261646 0.249401689 0.193785101
v 0.093894444 0.203835279 0.191730469
v 0.045801118 0.252139747 0.195263565
v 0.094812334 0.212705612 0.193485454
v 0.043605935 0.263506949 0.196250573
v 0.106418416 0.212968424 0.193971753
v 0.055187970 0.263780951 0.195825756
v 0.104199179 0.224346831 0.194047645
v 0.056035344 0.272684097 0.194909468
v 0.112668142 0.227117717 0.192854851
v 0.069412582 0.271498770 0.192748800
v 0.108565599 0.239996493 0.191328347
v 0.074542776 0.276943147 0.190242469
v 0.112668492 0.246242762 0.188955292
v 0.102835409 0.273285002 0.183441371
v 0.045522753 0.203975543 0.181513473
v 0.047300246 0.203069896 0.178857192
v 0.094273023 0.265138417 0.192125648
v 0.096762002 0.263192564 0.191837966
v -0.076650798 0.199528158 0.191423908
v -0.038649503 0.230363265 0.193156362
v -0.082155794 0.204969466 0.196109772
v -0.043174796 0.236651093 0.198141098
v -0.095802814 0.203736216 0.199494869
v -0.039418828 0.249562040 0.202433065
v -0.096870318 0.212646604 0.202107891
v -0.048074428 0.252305210 0.204650670
v -0.108508527 0.212876096 0.202577829
v -0.045972005 0.263702363 0.205836639
v -0.106309146 0.224259317 0.202120408
v -0.057513259 0.263917953 0.204663187
v -0.114680469 0.226961657 0.199519873
v -0.058296494 0.272787482 0.202458084
v -0.110472292 0.239807636 0.196147293
v -0.071491301 0.271489263 0.198178619
v -0.114421219 0.246004596 0.191408306
v -0.076423667 0.276840687 0.193164095
v -0.104146622 0.272830069 0.180140451
v -0.048153583 0.202910081 0.179077283
v -0.097800009 0.262865126 0.192125663
v -0.046619758 0.203701124 0.181375250
v -0.095376484 0.264891893 0.191837981
v -0.000609661 0.003041216 0.039473493
v 0.208356887 -0.068608738 0.112672046
v 0.211333469 -0.060919002 0.111011431
v 0.002246432 0.004288808 0.032390472
v 0.001656659 -0.000516661 0.029780947
v 0.212974042 -0.063568950 0.103928432
v -0.001901864 -0.005303440 0.035711695
v 0.210153908 -0.070529938 0.105792373
v 0.210743681 -0.065724470 0.002088159
v 0.222361088 -0.062290620 0.009461658
v 0.213380426 -0.054436117 0.008619504
v 0.200765282 -0.059963431 0.008625536
v 0.201029539 -0.072730429 0.009158693
v 0.210743695 -0.081918634 0.012751475
v 0.220355496 -0.073099859 0.009218332
v 0.227316946 -0.056155909 0.016157053
v 0.218296036 -0.046750527 0.018412575
v 0.205801383 -0.046492815 0.016928613
v 0.194302395 -0.053017132 0.019015452
v 0.190833643 -0.063305266 0.017970674
v 0.195436120 -0.079579644 0.018664205
v 0.223363742 -0.081998877 0.018758122
v 0.229042381 -0.075074196 0.018536955
v 0.232659683 -0.065373078 0.020515990
v 0.233615577 -0.045183953 0.032310344
v 0.217279583 -0.035705723 0.032174427
v 0.201730952 -0.043258384 0.024126213
v 0.189591691 -0.072109513 0.020775704
v 0.201715887 -0.084233761 0.018551825
v 0.214133531 -0.096538268 0.032294307
v 0.241867259 -0.069821954 0.032383088
v 0.239919230 -0.054074369 0.032197177
v 0.226078168 -0.038664632 0.032920346
v 0.207148358 -0.034385718 0.032548185
v 0.191520616 -0.040672462 0.032380469
v 0.181668803 -0.053681243 0.033082779
v 0.179457828 -0.065724470 0.032463517
v 0.181665376 -0.077769123 0.033020973
v 0.191498414 -0.090542391 0.032479204
v 0.203303024 -0.095869303 0.032592352
v 0.230049476 -0.090884261 0.032741770
v 0.237935558 -0.080713652 0.032592341
v 0.248379663 -0.063424513 0.046900209
v 0.246043161 -0.050998006 0.047708467
v 0.210610941 -0.027855454 0.047554854
v 0.200991154 -0.029327521 0.047425993
v 0.190255091 -0.034131981 0.046834581
v 0.172999516 -0.065455645 0.047256023
v 0.184060141 -0.092595801 0.047554847
v 0.210124150 -0.103504434 0.047472488
v 0.223287448 -0.097068340 0.038945869
v 0.241035327 -0.088879839 0.047234833
v 0.247282296 -0.075437255 0.047714442
v 0.234257877 -0.035558380 0.047357220
v 0.220329151 -0.028989816 0.047424007
v 0.183653578 -0.039090805 0.047537263
v 0.175368637 -0.050959524 0.047748212
v 0.175485805 -0.080328755 0.047003280
v 0.196062252 -0.100965135 0.047015570
v 0.226648107 -0.100397006 0.047135260
v 0.199980497 -0.025555726 0.063321926
v 0.169180453 -0.065504409 0.063392892
v 0.210743681 -0.107598275 0.065184399
v 0.221636206 -0.105839983 0.063416697
v 0.252867997 -0.065447122 0.068297148
v 0.251240492 -0.054624435 0.066830136
v 0.246711969 -0.044164993 0.066292420
v 0.240333915 -0.035741966 0.068297222
v 0.231530264 -0.029239951 0.066830181
v 0.221551821 -0.025542807 0.062958829
v 0.210563838 -0.023856713 0.065562792
v 0.185263723 -0.032442674 0.062749863
v 0.173986971 -0.045102704 0.068563864
v 0.169902116 -0.055318695 0.068563871
v 0.170545071 -0.076493539 0.062992364
v 0.174353346 -0.086734429 0.066384003
v 0.181580991 -0.095858596 0.066292383
v 0.189937428 -0.101766139 0.062992401
v 0.200555101 -0.106402740 0.066292375
v 0.231530264 -0.102208987 0.066830173
v 0.240333915 -0.095706969 0.068297237
v 0.247134015 -0.086734436 0.066384032
v 0.251231402 -0.076386847 0.065562755
v 0.185408846 -0.032762617 0.077959619
v 0.220171645 -0.027581178 0.092673808
v 0.200855464 -0.027896540 0.093111701
v 0.171459958 -0.066489972 0.092673793
v 0.172918409 -0.075859711 0.092761800
v 0.191401809 -0.099704184 0.093111709
v 0.221164405 -0.103602611 0.092698574
v 0.247827590 -0.055787895 0.094796650
v 0.229939729 -0.032475963 0.094796643
v 0.210743681 -0.027180275 0.094224811
v 0.191632748 -0.032338768 0.094531983
v 0.183643088 -0.038422633 0.094532005
v 0.177495182 -0.084920503 0.094796672
v 0.183643118 -0.093026340 0.094531998
v 0.200924814 -0.102918863 0.094532005
v 0.210743681 -0.104268670 0.094224811
v 0.243921936 -0.085138023 0.094581187
v 0.248934478 -0.071725085 0.094796963
v 0.241929725 -0.042679161 0.094443865
v 0.175424948 -0.050727215 0.095447280
v 0.233644903 -0.096841842 0.094836041
v 0.240587085 -0.061795503 0.108413361
v 0.234770328 -0.047288191 0.108405910
v 0.222262815 -0.037914854 0.108413361
v 0.206790730 -0.035698652 0.108405910
v 0.191809550 -0.042216834 0.108410314
v 0.182934061 -0.054205339 0.108413361
v 0.180717871 -0.069677480 0.108405910
v 0.186863035 -0.084048770 0.108413361
v 0.202785060 -0.095426433 0.108424991
v 0.226911947 -0.091683112 0.108428292
v 0.238894939 -0.076615602 0.108410314
v 0.210743681 -0.065724470 0.109996617
v 0.223030075 -0.058637507 0.110820517
v 0.226225585 -0.046481095 0.106401905
v 0.225925311 -0.052258741 0.109868787
v 0.225925311 -0.052258730 0.102935016
v 0.228330910 -0.072606161 0.103048675
v 0.230269819 -0.075797245 0.106401898
v 0.226673797 -0.077405430 0.110336527
v 0.224893034 -0.085039765 0.105402380
v 0.219516248 -0.075797237 0.106401898
v 0.221455172 -0.072606213 0.109755136
v 0.221455157 -0.072606176 0.103048667
v 0.221067548 -0.051599633 0.106401898
v 0.223030075 -0.058637515 0.101983286
v 0.210689768 -0.048206143 0.110733427
v 0.201990411 -0.049088266 0.109868787
v 0.196746126 -0.046298888 0.105402380
v 0.207197785 -0.044041365 0.106401898
v 0.209633544 -0.046871483 0.103048667
v 0.228241742 -0.055447031 0.109868787
v 0.229731724 -0.052994218 0.106401898
v 0.222431853 -0.052685857 0.101983286
v 0.227603778 -0.057410557 0.102935024
v 0.220598623 -0.057663821 0.109755136
v 0.233005837 -0.059481520 0.106401898
v 0.207508817 -0.053410683 0.103048667
v 0.203874752 -0.054268599 0.106401898
v 0.201955080 -0.050579213 0.110820524
v 0.187943369 -0.073034115 0.105402380
v 0.189026088 -0.062396366 0.106401898
v 0.190990061 -0.065811083 0.110336535
v 0.192470372 -0.060954377 0.103048667
v 0.204504117 -0.043731906 0.106401898
v 0.201955065 -0.050579224 0.101983279
v 0.211685658 -0.042622723 0.106401898
v 0.208046734 -0.047120430 0.109868780
v 0.208046734 -0.047120433 0.102935016
v 0.198032960 -0.064995840 0.109755136
v 0.198032960 -0.064995840 0.103048667
v 0.197725892 -0.068717152 0.106401898
v 0.200490281 -0.079928771 0.110733427
v 0.211685658 -0.088826209 0.106401898
v 0.204504117 -0.087717034 0.106401898
v 0.201955050 -0.080869704 0.101983279
v 0.189026088 -0.069052584 0.106401898
v 0.192470372 -0.070494562 0.103048667
v 0.190546528 -0.063753992 0.109868787
v 0.187943369 -0.058414828 0.105402380
v 0.198032975 -0.066453122 0.109755136
v 0.197725892 -0.062731795 0.106401898
v 0.198032945 -0.066453099 0.103048667
v 0.208046734 -0.084328495 0.109868780
v 0.208046734 -0.084328495 0.102935016
v 0.222431868 -0.078763075 0.110820517
v 0.233486012 -0.073212534 0.105402380
v 0.229731724 -0.078454718 0.106401898
v 0.207197785 -0.087407582 0.106401898
v 0.222723350 -0.080324322 0.103048667
v 0.209633544 -0.084577456 0.109755136
v 0.208951682 -0.083143063 0.101983279
v 0.196746126 -0.085150056 0.107401416
v 0.207508802 -0.078038268 0.109755136
v 0.200500414 -0.079907864 0.106401898
v 0.201990396 -0.082360677 0.102935024
v 0.220598623 -0.073785119 0.103048667
v 0.227603763 -0.074038386 0.109868787
v 0.223034382 -0.070955008 0.106401898
v 0.246267319 -0.066308856 0.052527621
v 0.249246567 -0.065987065 0.050356995
v 0.247576654 -0.065123409 0.045869790
v 0.249246567 -0.067817062 0.046544828
v 0.247576654 -0.068680726 0.051032033
v 0.244463369 -0.067817062 0.050356999
v 0.246267319 -0.067495279 0.044374201
v 0.244463369 -0.065987073 0.046544828
v 0.246446431 -0.054853108 0.055382717
v 0.243870765 -0.053129833 0.052986730
v 0.247583106 -0.053626608 0.048665162
v 0.247764990 -0.055792261 0.049043804
v 0.243135527 -0.055768102 0.053040843
v 0.244805440 -0.056631770 0.048553646
v 0.244589761 -0.054522485 0.047019675
v 0.233467832 -0.042038746 0.039061662
v 0.234300330 -0.042257313 0.031203337
v 0.234667227 -0.040779352 0.034984950
v 0.235118061 -0.043571096 0.037075903
v 0.231901363 -0.044393811 0.037550852
v 0.230642304 -0.041692819 0.037075911
v 0.231325984 -0.043105114 0.031156203
v 0.222455800 -0.032464072 0.071910709
v 0.223765135 -0.031278621 0.065252893
v 0.225572243 -0.033057287 0.070136771
v 0.223980799 -0.033387911 0.063718915
v 0.222064644 -0.034819145 0.070399895
v 0.221206605 -0.034274962 0.065173067
v 0.220651865 -0.032142274 0.065927915
v 0.205720335 -0.029253017 0.052672923
v 0.207029685 -0.028067563 0.046015106
v 0.208699569 -0.028931219 0.050502297
v 0.208699569 -0.030761233 0.046690129
v 0.207029685 -0.031624887 0.051177319
v 0.205720335 -0.030439436 0.044519503
v 0.203916386 -0.030761223 0.050502297
v 0.203916386 -0.028931228 0.046690129
v 0.191375539 -0.038579173 0.075267971
v 0.188799873 -0.036855899 0.072871983
v 0.192512214 -0.037352670 0.068550415
v 0.192694113 -0.039518315 0.068929061
v 0.188064635 -0.039494175 0.072926089
v 0.189734533 -0.040357836 0.068438910
v 0.189518884 -0.038248550 0.066904932
v 0.179484829 -0.045506969 0.054873645
v 0.180794179 -0.044321515 0.048215825
v 0.182464078 -0.045185179 0.052703019
v 0.182310358 -0.047039323 0.048705988
v 0.181051284 -0.047862038 0.053362835
v 0.179484829 -0.046693388 0.046720225
v 0.177680880 -0.047015175 0.052703019
v 0.177680880 -0.045185179 0.048890851
v 0.173834354 -0.067623861 0.063821569
v 0.176813588 -0.067302071 0.061650947
v 0.175143704 -0.066438414 0.057163741
v 0.176813588 -0.069132075 0.057838775
v 0.175143704 -0.069995731 0.062325977
v 0.172030404 -0.069132067 0.061650943
v 0.173834354 -0.068810277 0.055668149
v 0.172030404 -0.067302078 0.057838775
v 0.175563797 -0.076753847 0.055828553
v 0.176873133 -0.075568400 0.049170729
v 0.178543046 -0.076432064 0.053657927
v 0.178543046 -0.078262053 0.049845766
v 0.176873133 -0.079125717 0.054332960
v 0.175563797 -0.077940270 0.047675140
v 0.173759848 -0.078262053 0.053657930
v 0.173759848 -0.076432064 0.049845759
v 0.190554276 -0.095822066 0.066414937
v 0.189244926 -0.093450196 0.064919345
v 0.192358226 -0.094313852 0.064244308
v 0.189966619 -0.095228851 0.057876900
v 0.191832364 -0.096940912 0.060745962
v 0.187575027 -0.096143849 0.064244315
v 0.187575027 -0.094313860 0.060432144
v 0.207026884 -0.101658925 0.066530004
v 0.209418476 -0.100743935 0.063974760
v 0.207614526 -0.101065718 0.057991970
v 0.209418476 -0.102573924 0.060162600
v 0.204635277 -0.102573931 0.063974760
v 0.206305176 -0.103437588 0.059487566
v 0.205161139 -0.099946871 0.060476411
v 0.214952618 -0.099485777 0.045976490
v 0.217405990 -0.098366924 0.043492049
v 0.217931852 -0.100993991 0.039993696
v 0.216261968 -0.101857647 0.044480894
v 0.215540260 -0.100078985 0.037438456
v 0.213148668 -0.100993983 0.043805860
v 0.213148668 -0.099163994 0.039993696
v 0.233648106 -0.087904714 0.078016572
v 0.236627355 -0.087582931 0.075845949
v 0.234957442 -0.086719267 0.071358748
v 0.236627355 -0.089412920 0.072033793
v 0.234957442 -0.090276584 0.076520979
v 0.231844157 -0.089412920 0.075845949
v 0.233648106 -0.089091137 0.069863163
v 0.231844157 -0.087582931 0.072033785
v 0.236434400 -0.081929319 0.037509784
v 0.239413634 -0.081607535 0.035339158
v 0.237743735 -0.080743872 0.030851955
v 0.239413634 -0.083437540 0.031526990
v 0.237743735 -0.084301196 0.036014192
v 0.234630466 -0.083437540 0.035339162
v 0.236434400 -0.083115749 0.029356360
v 0.234630466 -0.081607528 0.031526987
vn 0.000000017 -0.000000007 1.000000000
vn -0.000002043 0.450434566 0.892809451
vn -0.000009648 0.914307833 0.405020088
vn 0.000004780 0.914311528 -0.405011714
vn 0.000000000 0.450433195 -0.892810166
vn 0.000000003 -0.000000007 -1.000000000
vn 0.318503916 0.318506688 0.892809570
vn 0.646506369 0.646520078 0.405020088
vn 0.646513939 0.646507204 -0.405028611
vn 0.318506271 0.318506181 -0.892808795
vn 0.450434536 0.000002026 0.892809570
vn 0.914307833 0.000009595 0.405020177
vn 0.914311528 -0.000004768 -0.405011684
vn 0.450433105 0.000000000 -0.892810166
vn 0.318506718 -0.318503827 0.892809510
vn 0.646520078 -0.646506429 0.405020177
vn 0.646507204 -0.646513939 -0.405028671
vn 0.318506241 -0.318506211 -0.892808795
vn 0.000002031 -0.450434536 0.892809570
vn 0.000009638 -0.914307833 0.405020237
vn -0.000004787 -0.914311528 -0.405011743
vn 0.000000000 -0.450433195 -0.892810166
vn -0.318503857 -0.318506718 0.892809451
vn -0.646506429 -0.646520078 0.405020207
vn -0.646513939 -0.646507204 -0.405028641
vn -0.318506211 -0.318506211 -0.892808795
vn -0.450434536 -0.000002026 0.892809570
vn -0.914307833 -0.000009595 0.405020177
vn -0.914311528 0.000004768 -0.405011684
vn -0.450433105 0.000000000 -0.892810166
vn -0.318506747 0.318503797 0.892809510
vn -0.646520078 0.646506429 0.405020177
vn -0.646507263 0.646513939 -0.405028671
vn -0.318506271 0.318506181 -0.892808795
vn 0.704537034 -0.664529085 0.249055460
vn 0.005082640 -0.004795416 0.999975562
vn 0.056264304 -0.996413708 -0.063199863
vn -0.643188655 -0.336678445 0.687717915
vn -0.298541099 -0.661754489 -0.687716722
vn -0.997999072 -0.002018219 0.063196309
vn -0.005086632 0.004795403 -0.999975562
vn -0.704534531 0.664532423 -0.249053821
vn 0.643190324 0.336677223 -0.687717021
vn -0.056263562 0.996413767 0.063199371
vn 0.997998893 0.002017582 -0.063198917
vn 0.298541993 0.661750317 0.687720299
vn 0.361177385 -0.364031851 0.858505487
vn 0.368554533 -0.374124259 0.850998640
vn 0.331012666 -0.338792980 0.880709946
vn 0.333816290 -0.342596143 0.878176868
vn 0.260183930 -0.274646580 0.925674736
vn 0.260183215 -0.274644285 0.925675631
vn 0.170670226 -0.191504508 0.966539085
vn 0.170667037 -0.191504359 0.966539621
vn 0.061860394 -0.089741923 0.994042158
vn 0.061856885 -0.089742251 0.994042277
vn -0.049779277 0.015411505 0.998641312
vn -0.049779430 0.015410821 0.998641312
vn -0.145013079 0.105707355 0.983766913
vn -0.145010650 0.105704799 0.983767450
vn -0.223005429 0.181489393 0.957773566
vn -0.227937609 0.184800312 0.955977678
vn -0.274956495 0.234067872 0.932529509
vn -0.284541637 0.240465447 0.928015292
vn -0.325473696 0.282508314 0.902361274
vn -0.293901473 0.839999318 0.456095517
vn 0.415604413 -0.686195374 -0.596999884
vn -0.918276370 0.302254885 -0.255755067
vn 0.796471953 -0.456220835 0.396856427
vn 0.076647758 -0.535460055 0.841075301
vn 0.075312436 -0.551381826 0.830846727
vn 0.068152688 -0.492067873 0.867884994
vn 0.067685351 -0.498179317 0.864428282
vn 0.051409721 -0.377891183 0.924421608
vn 0.051409651 -0.377891392 0.924421489
vn 0.029999282 -0.219705969 0.975104749
vn 0.029998986 -0.219704807 0.975105107
vn 0.003141351 -0.021348108 0.999767244
vn 0.003140597 -0.021340985 0.999767303
vn -0.024419876 0.182127431 0.982971668
vn -0.024420068 0.182129771 0.982971191
vn -0.046995841 0.348739713 0.936040640
vn -0.046996858 0.348744243 0.936038852
vn -0.064092889 0.474875122 0.877716243
vn -0.063710362 0.480885446 0.874465764
vn -0.074123643 0.558048606 0.826491058
vn -0.073296674 0.569010735 0.819057107
vn -0.081083097 0.625229776 0.776217401
vn -0.304225147 -0.821630657 -0.482047796
vn -0.649219394 0.740173936 0.175090507
vn 0.524354160 -0.819443345 0.231441706
vn 0.427706569 0.900797844 0.075036921
vn 0.402973950 -0.067499399 0.912719011
vn 0.411285013 -0.066497646 0.909077942
vn 0.362036884 -0.065234371 0.929878354
vn 0.365154237 -0.064876370 0.928683698
vn 0.272568047 -0.059634991 0.960286617
vn 0.272571057 -0.059635255 0.960285723
vn 0.162916750 -0.052274801 0.985253990
vn 0.162917227 -0.052274711 0.985253990
vn 0.032102361 -0.042827923 0.998566568
vn 0.032099091 -0.042827476 0.998566747
vn -0.101154223 -0.032485198 0.994340301
vn -0.101155423 -0.032485094 0.994340181
vn -0.215262458 -0.023044907 0.976284325
vn -0.215259746 -0.023045029 0.976284862
vn -0.316808373 -0.014165979 0.948383749
vn -0.312734485 -0.015235980 0.949718356
vn -0.388038576 -0.008332650 0.921605468
vn -0.380069196 -0.010494756 0.924898624
vn -0.441061288 -0.004644171 0.897465050
vn 0.775616825 -0.606274605 -0.175640970
vn -0.735391378 0.178735226 0.653646171
vn 0.874902844 0.478140831 -0.076982535
vn -0.914952159 -0.049012352 -0.400575221
vn 0.822107494 0.517879963 0.236515716
vn 0.016850432 0.010613243 0.999801695
vn 0.978138447 -0.194886699 -0.072556362
vn 0.172883049 -0.702152610 0.690719366
vn 0.558661282 -0.459135383 -0.690718651
vn -0.246596172 -0.966398418 0.072556436
vn -0.016843637 -0.010613778 -0.999801874
vn -0.822108209 -0.517877221 -0.236519068
vn -0.172874808 0.702150881 -0.690723121
vn -0.978138268 0.194885910 0.072561540
vn 0.246596843 0.966398180 -0.072557427
vn -0.558664262 0.459124506 0.690723538
vn 0.332136959 0.249171287 0.909724534
vn 0.341580272 0.252816409 0.905210912
vn 0.302392393 0.229502112 0.925141931
vn 0.305905074 0.230877370 0.923643708
vn 0.232557222 0.185953557 0.954640448
vn 0.232557073 0.185954452 0.954640329
vn 0.147627413 0.133500233 0.979991794
vn 0.147625044 0.133500248 0.979992092
vn 0.046885736 0.070717014 0.996393919
vn 0.046888251 0.070719399 0.996393681
vn -0.055557884 0.006268234 0.998435855
vn -0.055557247 0.006268596 0.998435915
vn -0.143862739 -0.049775492 0.988345027
vn -0.143858597 -0.049774051 0.988345742
vn -0.219878286 -0.098395988 0.970552385
vn -0.223620117 -0.100016437 0.969531178
vn -0.274680376 -0.132910997 0.952305377
vn -0.282097578 -0.136118054 0.949680328
vn -0.324140728 -0.163413048 0.931788087
vn -0.487955332 -0.686666727 0.538877010
vn 0.713726699 0.308715224 -0.628720284
vn 0.693856180 0.580847025 0.425652802
vn -0.920181334 -0.201066092 -0.335914969
vn 0.304529935 -0.096634522 0.947588205
vn 0.315010607 -0.099517167 0.943856299
vn 0.266836554 -0.094335504 0.959113777
vn 0.270731330 -0.095409364 0.957915246
vn 0.180234805 -0.086144947 0.979844093
vn 0.180237964 -0.086145207 0.979843438
vn 0.075804465 -0.074737594 0.994317889
vn 0.075806908 -0.074737273 0.994317710
vn -0.047037702 -0.060374282 0.997066975
vn -0.047031552 -0.060374480 0.997067153
vn -0.170790300 -0.044875942 0.984284997
vn -0.170793712 -0.044875700 0.984284341
vn -0.276141465 -0.030836781 0.960622191
vn -0.276145369 -0.030836804 0.960621059
vn -0.365597785 -0.018258827 0.930593908
vn -0.369509608 -0.017001105 0.929071367
vn -0.428830206 -0.008292844 0.903347075
vn -0.436472297 -0.005746716 0.899699330
vn -0.484805167 0.001569971 0.874620855
vn 0.787975430 -0.614394188 0.040182371
vn -0.756103754 -0.034063682 0.653564632
vn 0.857718170 0.422831088 -0.292461306
vn -0.888481498 0.223858491 -0.400609523
vn 0.156138986 0.562974691 0.811591208
vn 0.164943188 0.576333344 0.800395906
vn 0.143676385 0.521369934 0.841148376
vn 0.147013173 0.526562929 0.837328255
vn 0.105500519 0.412528336 0.904815018
vn 0.105502732 0.412531525 0.904813230
vn 0.050806738 0.258955538 0.964552164
vn 0.050807312 0.258955836 0.964552045
vn -0.017255999 0.063163616 0.997853994
vn -0.017253285 0.063171022 0.997853637
vn -0.086030170 -0.139809757 0.986433983
vn -0.086028524 -0.139809608 0.986434221
vn -0.141115084 -0.306477606 0.941359699
vn -0.141111836 -0.306473434 0.941361547
vn -0.182879299 -0.431037158 0.883607507
vn -0.183666512 -0.438267887 0.879879475
vn -0.210711464 -0.509379566 0.834345937
vn -0.211935773 -0.522619665 0.825803757
vn -0.232189178 -0.579032183 0.781543314
vn -0.125603154 -0.745848715 0.654166281
vn 0.355278462 0.667828918 -0.654050291
vn -0.407567799 -0.821045399 -0.399716020
vn 0.177878559 0.899124980 0.399916887
vn -0.017285062 0.986659586 0.161876991
vn -0.001678764 0.095935337 0.995386124
vn 0.673598766 0.728028655 -0.127432257
vn 0.689200282 -0.162698492 0.706068158
vn 0.683078885 0.186734915 -0.706068873
vn 0.698680699 -0.703992546 0.127435461
vn 0.001682703 -0.095940553 -0.995385706
vn 0.017279765 -0.986657977 -0.161887392
vn -0.689196944 0.162694991 -0.706072152
vn -0.673600256 -0.728026152 0.127438650
vn -0.698685050 0.703988314 -0.127435297
vn -0.683076620 -0.186730415 0.706072330
vn -0.024888240 0.457192659 0.889019370
vn -0.026245715 0.464310527 0.885283530
vn -0.024432775 0.419517338 0.907418370
vn -0.024934597 0.422188014 0.906165242
vn -0.023632392 0.337817341 0.940915048
vn -0.023632687 0.337819666 0.940914094
vn -0.022459172 0.238652661 0.970845222
vn -0.022459084 0.238651305 0.970845640
vn -0.020790782 0.120079130 0.992546618
vn -0.020790871 0.120078616 0.992546678
vn -0.018798171 -0.001475761 0.999822259
vn -0.018798698 -0.001474897 0.999822259
vn -0.016842702 -0.106997997 0.994116545
vn -0.016842728 -0.107000522 0.994116366
vn -0.014977525 -0.198358655 0.980015099
vn -0.015554331 -0.202467352 0.979165554
vn -0.014179212 -0.264143765 0.964379132
vn -0.015334888 -0.272302151 0.962089598
vn -0.014080485 -0.323322088 0.946184218
vn 0.502102017 0.862340927 0.065283090
vn 0.334997863 -0.773113728 0.538582921
vn -0.533866167 0.802057147 -0.267752409
vn -0.302688390 -0.891416073 -0.337279052
vn 0.348236352 0.490406573 0.798894823
vn 0.359216154 0.499016821 0.788635552
vn 0.324742615 0.457947671 0.827542365
vn 0.328917086 0.461292595 0.824028373
vn 0.261011660 0.377348810 0.888527393
vn 0.261006922 0.377345413 0.888530135
vn 0.173783123 0.268371105 0.947510600
vn 0.173782349 0.268370420 0.947510958
vn 0.064679682 0.130526081 0.989332795
vn 0.064682268 0.130526468 0.989332616
vn -0.048696015 -0.014357421 0.998710454
vn -0.048690435 -0.014356119 0.998710752
vn -0.144337863 -0.137865886 0.979877412
vn -0.144331202 -0.137862310 0.979878843
vn -0.220463842 -0.237079188 0.946144462
vn -0.224865615 -0.241094455 0.944091678
vn -0.273192137 -0.304532647 0.912483394
vn -0.281538934 -0.312100351 0.907374918
vn -0.318303078 -0.360927403 0.876592577
vn 0.800335586 0.356549829 -0.482011616
vn -0.076096378 -0.981607616 0.175088212
vn 0.219938830 0.947692096 0.231314823
vn -0.943257749 -0.323473901 0.075029716
vn -0.266599059 0.443269759 0.855825365
vn -0.273573130 0.454525769 0.847681701
vn -0.237368047 0.414918721 0.878350079
vn -0.240012884 0.419191062 0.875598431
vn -0.168876871 0.341727048 0.924501598
vn -0.168878421 0.341725558 0.924501896
vn -0.082192481 0.244605422 0.966132820
vn -0.082194120 0.244606048 0.966132522
vn 0.022227045 0.123935290 0.992041290
vn 0.022223340 0.123939231 0.992040932
vn 0.127859548 -0.002149852 0.991789997
vn 0.127859339 -0.002149054 0.991790056
vn 0.215979367 -0.110584162 0.970115483
vn 0.215980276 -0.110585973 0.970115125
vn 0.286841869 -0.200187862 0.936827898
vn 0.289386094 -0.204972863 0.935009003
vn 0.334518671 -0.263407290 0.904828131
vn 0.339266777 -0.272663623 0.900306880
vn 0.374287784 -0.318755805 0.870806217
vn 0.864695489 -0.300808311 0.402263820
vn -0.181227922 0.857230783 -0.481987536
vn -0.880929232 0.413026899 0.231025249
vn 0.198397920 -0.968507409 -0.150438845
vn -0.762253702 0.572088540 0.302793711
vn 0.039108738 -0.029353490 0.998803735
vn -0.169541314 0.985263824 -0.022607779
vn 0.631832063 0.383817762 0.673403442
vn 0.192030072 0.713899016 -0.673403740
vn 0.993400156 0.112450123 0.022607651
vn -0.039109506 0.029353615 -0.998803735
vn 0.762257457 -0.572090268 -0.302780986
vn -0.631830394 -0.383814573 -0.673406780
vn 0.169535682 -0.985264719 0.022607548
vn -0.993399739 -0.112454623 -0.022606662
vn -0.192038253 -0.713896394 0.673404217
vn -0.292168736 0.239932016 0.925780773
vn -0.299317688 0.243492007 0.922561944
vn -0.259626359 0.216044679 0.941232562
vn -0.262291282 0.217384994 0.940184593
vn -0.189433157 0.163966596 0.968106508
vn -0.189433083 0.163968414 0.968106210
vn -0.104639404 0.100806549 0.989387989
vn -0.104636610 0.100806698 0.989388347
vn -0.004315574 0.025742840 0.999659300
vn -0.004317801 0.025745383 0.999659181
vn 0.097138502 -0.050528806 0.993987441
vn 0.097139917 -0.050528776 0.993987262
vn 0.183857366 -0.116015479 0.976082504
vn 0.183860570 -0.116017617 0.976081550
vn 0.257578582 -0.171912208 0.950841546
vn 0.260462701 -0.174981892 0.949494958
vn 0.309499294 -0.212274000 0.926903486
vn 0.315135628 -0.218335375 0.923590362
vn 0.355144322 -0.248787284 0.901097894
vn 0.358374417 -0.853817284 0.377576232
vn -0.335416466 0.930209160 -0.149019003
vn 0.973407805 -0.145760551 -0.176722914
vn -0.996241033 0.069551088 -0.051639240
vn -0.163939252 0.428289831 0.888646126
vn -0.164283767 0.442335516 0.881674647
vn -0.152840227 0.387695074 0.909028292
vn -0.153013557 0.392995656 0.906720102
vn -0.128815845 0.286978275 0.949236512
vn -0.128815323 0.286980301 0.949235976
vn -0.098016255 0.156903669 0.982738018
vn -0.098014593 0.156901643 0.982738554
vn -0.059192240 -0.000752140 0.998246312
vn -0.059192076 -0.000751191 0.998246312
vn -0.018072786 -0.161143422 0.986765504
vn -0.018073253 -0.161142737 0.986765623
vn 0.017687721 -0.295534283 0.955168366
vn 0.017686576 -0.295531064 0.955169439
vn 0.049028940 -0.409435451 0.911020756
vn 0.048565969 -0.404327959 0.913323760
vn 0.071703129 -0.486117512 0.870946825
vn 0.070839390 -0.476406604 0.876366675
vn 0.089192189 -0.540373325 0.836684763
vn -0.262148052 -0.876037359 0.404767901
vn -0.067924149 0.752274275 -0.655339360
vn 0.669976473 -0.727691650 -0.146957129
vn -0.340686977 0.851440847 0.398724049
vn -0.556505740 -0.073531128 0.827583611
vn -0.571397305 -0.070205070 0.817665219
vn -0.513987184 -0.071176469 0.854839802
vn -0.519703627 -0.069971070 0.851476490
vn -0.403863370 -0.069427870 0.912181079
vn -0.403862566 -0.069427647 0.912181377
vn -0.253252059 -0.067156360 0.965066552
vn -0.253251910 -0.067156509 0.965066612
vn -0.064537235 -0.062186100 0.995975792
vn -0.064537399 -0.062186215 0.995975792
vn 0.130434990 -0.054769773 0.989942968
vn 0.130434424 -0.054769497 0.989942968
vn 0.292620838 -0.046806831 0.955082297
vn 0.292617738 -0.046806749 0.955083311
vn 0.418395311 -0.040712383 0.907352090
vn 0.425184995 -0.038956225 0.904267728
vn 0.499947339 -0.037854422 0.865228236
vn 0.512572706 -0.034374829 0.857955456
vn 0.573350489 -0.032221776 0.818676353
vn -0.910820246 0.185782984 0.368634164
vn 0.758345425 -0.191278100 0.623157203
vn -0.743364394 -0.241013497 -0.623956621
vn 0.896063507 0.246534795 -0.369175762
vn -0.931976080 -0.355349541 0.071745299
vn -0.173617780 -0.066197664 0.982585728
vn -0.900065124 0.391255379 -0.191838339
vn -0.141708612 0.680407941 0.719001949
vn -0.347269595 0.602022588 -0.719008148
vn 0.411088675 0.891180336 0.191843048
vn 0.173611671 0.066195488 -0.982586980
vn 0.931975722 0.355351865 -0.071737349
vn 0.141701490 -0.680403352 -0.719007671
vn 0.900063872 -0.391255409 0.191844255
vn -0.411090076 -0.891180754 -0.191838428
vn 0.347272575 -0.602022350 0.719006836
vn -0.401187718 -0.070832990 0.913253009
vn -0.410762101 -0.073029287 0.908813059
vn -0.369096130 -0.055881515 0.927709699
vn -0.372662634 -0.056696117 0.926233292
vn -0.294350535 -0.024148436 0.955392361
vn -0.294351697 -0.024149038 0.955392003
vn -0.203534931 0.012652565 0.978985906
vn -0.203538120 0.012652179 0.978985250
vn -0.095409445 0.055254988 0.993903458
vn -0.095414914 0.055254612 0.993902922
vn 0.015119053 0.097509883 0.995119691
vn 0.015114113 0.097510204 0.995119750
vn 0.110986680 0.133118093 0.984866261
vn 0.110981904 0.133117124 0.984866917
vn 0.194155619 0.163209826 0.967298388
vn 0.198092178 0.163935199 0.966377139
vn 0.254313469 0.183832452 0.949489474
vn 0.262148798 0.185204268 0.947088957
vn 0.308740973 0.201417059 0.929575264
vn -0.910956502 -0.114723258 0.396228254
vn 0.843580186 -0.022489648 0.536532044
vn 0.714706421 0.613064051 -0.336670727
vn -0.646579206 -0.474828869 -0.597053528
vn -0.409888506 0.214562550 0.886540771
vn -0.418833673 0.218924344 0.881277800
vn -0.375691175 0.206405848 0.903467178
vn -0.379035413 0.208040833 0.901693523
vn -0.297086775 0.184554368 0.936845303
vn -0.297079027 0.184554324 0.936847866
vn -0.201376691 0.156105340 0.966994643
vn -0.201367557 0.156105772 0.966996431
vn -0.087086909 0.120813854 0.988847733
vn -0.087082699 0.120813891 0.988848150
vn 0.030026875 0.083233364 0.996077597
vn 0.030026054 0.083233781 0.996077538
vn 0.131459117 0.049539328 0.990083039
vn 0.131462485 0.049539082 0.990082622
vn 0.223277718 0.018650735 0.974576473
vn 0.220068842 0.019214798 0.975295067
vn 0.290098071 -0.003721430 0.956989765
vn 0.283725798 -0.002576610 0.958901942
vn 0.338384479 -0.021074243 0.940771997
vn -0.649511814 0.759393334 0.038160369
vn 0.622194052 -0.540497899 0.566336036
vn -0.922886014 -0.246049166 -0.296211511
vn 0.950711787 0.028611975 -0.308753312
vn -0.241926134 -0.392972380 0.887155235
vn -0.248940095 -0.401230186 0.881500542
vn -0.225063503 -0.360434830 0.905225515
vn -0.227684215 -0.363537520 0.903327405
vn -0.182867005 -0.285264283 0.940842152
vn -0.182867050 -0.285261005 0.940843165
vn -0.129648373 -0.192717120 0.972651720
vn -0.129652619 -0.192717284 0.972651184
vn -0.065426745 -0.081550255 0.994519472
vn -0.065433808 -0.081553973 0.994518697
vn 0.000831154 0.032597158 0.999468267
vn 0.000828101 0.032596670 0.999468267
vn 0.058304869 0.131172493 0.989643514
vn 0.058306795 0.131174251 0.989643216
vn 0.110127248 0.219694898 0.969332814
vn 0.107426405 0.216451988 0.970364988
vn 0.146276444 0.282558531 0.948031604
vn 0.140907153 0.276177287 0.950721502
vn 0.172709644 0.330021083 0.928039670
vn -0.876971662 -0.478859991 0.040173817
vn 0.269179106 0.707328677 0.653627396
vn 0.047117054 -0.955116928 -0.292457908
vn 0.558478117 0.726388097 -0.400577724
vn 0.002419577 -0.981990695 0.188914075
vn 0.000169363 -0.068583138 0.997645378
vn -0.684470534 -0.721038699 -0.107718788
vn -0.686718702 0.192379296 0.701004744
vn -0.685760260 -0.195758045 -0.701007664
vn -0.688018620 0.717653811 0.107719146
vn -0.000165487 0.068578452 -0.997645736
vn -0.002422192 0.981990099 -0.188916758
vn 0.686726570 -0.192368329 -0.701000035
vn 0.684470832 0.721038878 0.107715718
vn 0.688013315 -0.717658997 -0.107718378
vn 0.685764432 0.195759788 0.701003015
vn -0.008744773 -0.339355052 0.940617740
vn -0.007812520 -0.344717532 0.938674033
vn -0.009033918 -0.306849986 0.951715052
vn -0.008693183 -0.308834404 0.951076090
vn -0.009399721 -0.238816559 0.971019208
vn -0.009399505 -0.238819629 0.971018493
vn -0.009760400 -0.159622625 0.987129867
vn -0.009760485 -0.159623399 0.987129688
vn -0.010097777 -0.066882022 0.997709870
vn -0.010097929 -0.066878706 0.997710049
vn -0.010348485 0.027188784 0.999576747
vn -0.010348951 0.027188841 0.999576747
vn -0.010492470 0.109096192 0.993975818
vn -0.010493103 0.109093614 0.993976116
vn -0.010932249 0.184912845 0.982694149
vn -0.010562649 0.182577550 0.983134806
vn -0.011678881 0.240879059 0.970484853
vn -0.010927489 0.236172751 0.971649647
vn -0.011627464 0.282734036 0.959127963
vn -0.540153503 -0.827774227 -0.151736945
vn -0.410385787 0.788208723 0.458596081
vn 0.544375837 -0.837246954 -0.051697776
vn 0.407551497 0.876823127 -0.255114079
vn -0.208426088 -0.301208735 0.930500925
vn -0.211900815 -0.307328075 0.927710950
vn -0.184669256 -0.272101790 0.944382310
vn -0.185966402 -0.274379164 0.943468451
vn -0.133709937 -0.209858149 0.968545914
vn -0.133711889 -0.209857106 0.968545973
vn -0.072998181 -0.135281146 0.988114595
vn -0.072999172 -0.135281980 0.988114297
vn -0.001531561 -0.046941556 0.998896539
vn -0.001530504 -0.046944499 0.998896360
vn 0.070846036 0.043117933 0.996554911
vn 0.070847832 0.043117326 0.996554852
vn 0.133088604 0.121056385 0.983683288
vn 0.133090079 0.121057719 0.983682990
vn 0.189476028 0.192075565 0.962915301
vn 0.186836720 0.189674795 0.963906407
vn 0.229105860 0.243137628 0.942546964
vn 0.223851979 0.238373414 0.945023000
vn 0.258579105 0.282385975 0.923793852
vn -0.811892688 -0.493688941 0.311611086
vn -0.228181913 -0.793410301 -0.564298749
vn 0.091631658 0.980368555 0.174588591
vn 0.948334932 0.308063090 0.075881563
vn 0.305694282 -0.424617559 0.852203608
vn 0.313290119 -0.438795716 0.842204034
vn 0.274695992 -0.392241031 0.877889037
vn 0.277628332 -0.397665024 0.874519944
vn 0.198582619 -0.304074496 0.931720734
vn 0.198580936 -0.304073155 0.931721628
vn 0.095971346 -0.180839941 0.978818953
vn 0.095969602 -0.180840120 0.978819013
vn -0.030926621 -0.026010158 0.999183238
vn -0.030930122 -0.026010131 0.999183118
vn -0.159226045 0.133191943 0.978216290
vn -0.159226701 0.133190572 0.978216290
vn -0.262849808 0.263907284 0.928042471
vn -0.262846559 0.263903797 0.928044438
vn -0.339109421 0.363820791 0.867547870
vn -0.344341546 0.368305743 0.863585413
vn -0.385650188 0.428694695 0.817003548
vn -0.395268351 0.436820298 0.808053851
vn -0.428401530 0.484466255 0.762734950
vn 0.231588274 -0.794090271 -0.561949730
vn -0.939910948 0.293391377 0.174610689
vn 0.812676013 -0.492504209 0.311443925
vn -0.104444697 0.991707325 0.074885890
vn -0.641410112 0.559156597 0.525296986
vn 0.185132697 -0.534357011 0.824735403
vn 0.602982283 0.542191625 0.585184216
vn -0.224460006 0.848924816 -0.478481531
vn -0.333143920 -0.026999049 -0.942489326
vn 0.859854877 0.158084467 -0.485447109
vn -0.803808451 -0.594256222 -0.027413739
vn 0.457644731 -0.858886302 -0.229947418
vn 0.002272839 0.008557355 0.999960780
vn -0.595499158 -0.160708055 0.787117243
vn -0.130898848 -0.580299079 0.803815067
vn 0.519264340 -0.301709950 0.799584627
vn 0.499990046 0.348115653 0.792985260
vn -0.009825710 0.685482144 0.728023112
vn -0.489873052 0.374226153 0.787387550
vn -0.655356228 -0.385418564 0.649585068
vn -0.297480553 -0.704581082 0.644259930
vn 0.210823685 -0.733108163 0.646611035
vn 0.595418394 -0.479261428 0.644814253
vn 0.740035474 -0.087994657 0.666786671
vn 0.592011869 0.513047755 0.621533513
vn -0.442072660 0.626563549 0.641864359
vn -0.694370210 0.320046455 0.644531131
vn -0.772609234 -0.017899295 0.634629488
vn -0.633942723 -0.562478423 0.530786812
vn -0.176088497 -0.829476178 0.530058622
vn 0.293260515 -0.742324293 0.602455735
vn 0.733698845 0.245913193 0.633413553
vn 0.350504637 0.706120431 0.615256488
vn -0.111019984 0.846717298 0.520331204
vn -0.842139482 0.117612027 0.526278079
vn -0.763773680 -0.327618212 0.556161821
vn -0.426619619 -0.743137121 0.515502632
vn 0.089794040 -0.825096250 0.557811081
vn 0.545568168 -0.674940169 0.496801049
vn 0.790384531 -0.352103591 0.501313746
vn 0.864640117 -0.000027427 0.502391636
vn 0.783009052 0.349459112 0.514563024
vn 0.530304253 0.659058988 0.533309221
vn 0.201300338 0.822054803 0.532638788
vn -0.509306729 0.704530537 0.494209826
vn -0.751849174 0.404708385 0.520513117
vn -0.950891674 -0.055035606 0.304591894
vn -0.871781945 -0.384215444 0.303932190
vn 0.007248744 -0.950292528 0.311274081
vn 0.264952362 -0.910572231 0.317267418
vn 0.494609267 -0.796479523 0.347824693
vn 0.947142005 -0.005732406 0.320763230
vn 0.674962103 0.669315696 0.310552269
vn 0.001111992 0.948033154 0.318169832
vn -0.334804446 0.842188954 0.422639102
vn -0.745740235 0.586190641 0.316626072
vn -0.918240607 0.253161788 0.304537773
vn -0.594606757 -0.738453388 0.318008423
vn -0.254326522 -0.911823094 0.322330087
vn 0.682344913 -0.635604501 0.361126602
vn 0.876557112 -0.368304789 0.309837312
vn 0.872079790 0.360352010 0.331094116
vn 0.361226290 0.876914203 0.317075789
vn -0.403366357 0.843386173 0.354958028
vn 0.276619494 -0.957003415 0.087327354
vn 0.994875371 0.002273609 0.101084098
vn -0.006048152 0.997973561 0.063342281
vn -0.249691054 0.963876605 0.092716217
vn -0.999612093 -0.008171507 0.026625857
vn -0.964207828 -0.260775775 0.047950450
vn -0.857949436 -0.510786057 0.054957844
vn -0.703471839 -0.710461259 0.019291114
vn -0.481498897 -0.875686288 0.036503810
vn -0.260831565 -0.959990501 0.101907589
vn 0.005353405 -0.999010205 0.044159375
vn 0.606819153 -0.786699355 0.113467209
vn 0.857272863 -0.514154434 0.026987242
vn 0.973386168 -0.228539869 0.016998082
vn 0.967576206 0.234515131 0.093803406
vn 0.864182293 0.501936078 0.035342798
vn 0.690837562 0.721618116 0.044841707
vn 0.511449933 0.852510810 0.107908644
vn 0.246659726 0.968353033 0.038097788
vn -0.491176486 0.869911194 0.044722758
vn -0.700412154 0.713345826 0.023674848
vn -0.872041225 0.487505794 0.043384232
vn -0.964263618 0.256395191 0.066762753
vn 0.596714854 -0.796831965 -0.094817027
vn -0.228225678 -0.927924454 -0.294735879
vn 0.245595708 -0.923361301 -0.295104742
vn 0.954042435 -0.011139223 -0.299464464
vn 0.920032203 0.261537671 -0.291785479
vn 0.478923142 0.823457003 -0.304222286
vn -0.246846616 0.917761743 -0.311095357
vn -0.910832703 -0.244081184 -0.332878560
vn -0.491943479 -0.799949348 -0.343617082
vn -0.006043179 -0.940813780 -0.338869959
vn 0.453708827 -0.818036556 -0.353503257
vn 0.686426461 -0.640436828 -0.344469875
vn 0.814428210 0.468706369 -0.342083395
vn 0.658619106 0.671015680 -0.340527296
vn 0.234859720 0.919394195 -0.315523714
vn -0.015066712 0.937903166 -0.346569866
vn -0.809099078 0.485175103 -0.331608057
vn -0.933045268 0.143485382 -0.329906851
vn -0.759967864 -0.561959207 -0.326574236
vn 0.858998656 -0.362271309 -0.361774355
vn -0.572761834 0.746471703 -0.338709086
vn -0.543075562 -0.076325037 -0.836207747
vn -0.440707654 -0.338969260 -0.831189990
vn -0.207206979 -0.511042356 -0.834206760
vn 0.071709305 -0.553139210 -0.829996884
vn 0.347321689 -0.430007696 -0.833343267
vn 0.512943923 -0.208207935 -0.832789361
vn 0.556754887 0.067583881 -0.827922881
vn 0.429337531 0.343891919 -0.835109353
vn 0.136945754 0.551226497 -0.823040247
vn -0.287630558 0.486362040 -0.825057983
vn -0.507785320 0.213019133 -0.834731638
vn -0.000008056 0.000097369 -1.000000000
vn -0.391624123 0.092694856 0.915444314
vn 0.244755432 0.969584882 0.000002236
vn 0.333722860 0.364526093 0.869338691
vn 0.333082318 0.366872817 -0.868596852
vn 0.476780981 -0.077605493 -0.875589728
vn 0.975663960 -0.218835294 0.013822332
vn 0.239246011 -0.354853898 0.903792143
vn -0.034502733 -0.989885688 -0.137607694
vn -0.942009270 -0.330451787 0.058482092
vn -0.593852282 -0.119766615 0.795610070
vn -0.410756737 -0.086370505 -0.907644808
vn -0.870901883 0.491456866 -0.000000169
vn -0.390958101 0.083014898 -0.916657150
vn 0.099221282 0.418404549 0.902824998
vn -0.465368688 -0.004821486 0.885103881
vn -0.929200530 0.330492377 -0.165412530
vn 0.011893672 0.998595059 0.051637501
vn 0.044787299 0.417341053 -0.907645643
vn 0.383354366 0.118359782 0.915986061
vn 0.694585860 0.717313111 -0.054885842
vn 0.199765176 0.346172661 -0.916656137
vn 0.245991156 -0.430150121 -0.868596137
vn -0.110856161 -0.766747773 0.632304311
vn 0.839547873 -0.542877674 -0.021054953
vn -0.221139997 -0.429462403 -0.875590861
vn -0.524432003 -0.850597858 0.038137499
vn -0.264212519 0.302717537 0.915725946
vn -0.555241466 -0.820225358 -0.137613460
vn -0.927959740 0.372678578 0.001159458
vn -0.401304305 -0.160210624 0.901824534
vn -0.383077472 0.171561822 -0.907644331
vn -0.415702313 0.909500778 0.000000186
vn -0.267498702 0.296960056 -0.916656494
vn 0.767918229 0.640547872 0.000000059
vn 0.485113591 0.101027064 0.868595600
vn 0.485113472 0.101026677 -0.868595839
vn 0.428997397 -0.424064785 0.797577739
vn 0.340108335 -0.343029648 -0.875589550
vn 0.580897927 -0.811832488 0.059039395
vn -0.330818385 -0.327234775 0.885142148
vn 0.767917871 -0.640548468 0.000000103
vn -0.413347065 -0.910568774 0.002968729
vn -0.267499030 -0.296959996 -0.916656494
vn -0.928976953 -0.368429810 0.035514727
vn -0.383077532 -0.171561673 -0.907644391
vn -0.377914906 0.268774986 0.885968626
vn -0.558680654 0.812718987 -0.165420145
vn 0.434214354 0.391447544 0.811311781
vn 0.600023329 0.799337924 0.032106787
vn 0.340105951 0.343029290 -0.875590563
vn 0.472281724 -0.097168483 0.876075506
vn 0.485115141 -0.101026669 -0.868594825
vn 0.199766248 -0.346172333 0.916655898
vn 0.931186318 0.317121536 -0.179794490
vn 0.698221207 -0.713265359 0.061152983
vn 0.004550566 -0.999013126 -0.044182632
vn 0.272655815 -0.431971788 -0.859685481
vn 0.044785175 -0.417340547 0.907645941
vn -0.004063440 -0.332042873 -0.943255544
vn -0.914941728 -0.363615423 0.175115496
vn -0.290356308 0.476131469 0.830055475
vn -0.652013063 0.758204222 -0.002296228
vn -0.418955266 0.025156813 -0.907658339
vn -0.073525250 0.477427512 -0.875589550
vn 0.348671198 0.321741670 0.880290091
vn -0.070076436 0.996819258 0.037956458
vn -0.193323195 0.345812649 0.918172002
vn 0.797160208 0.449211270 0.403416544
vn 0.282709658 0.831040800 -0.479005724
vn 0.797160029 -0.449212492 -0.403415382
vn 0.282710075 -0.831041873 0.479003608
vn -0.863579392 -0.405037463 0.300291926
vn -0.193326056 -0.345813155 -0.918171227
vn -0.863577962 0.405039907 -0.300292730
vn 0.395221174 -0.058178194 0.916741788
vn -0.502442837 0.807762742 0.308335423
vn 0.661799133 0.624747753 -0.414381653
vn 0.795164406 -0.543331265 -0.269266933
vn -0.777732790 -0.512789965 0.363563418
vn -0.288552552 -0.869509459 -0.400862724
vn -0.386571258 0.213092148 -0.897303879
vn 0.179865032 0.294441015 0.938590944
vn 0.472693026 0.078076154 -0.877761602
vn 0.533818364 0.842377007 -0.073748924
vn 0.822377980 -0.502064228 0.267630488
vn -0.371352464 -0.835654378 0.404696375
vn -0.837722421 0.454507530 0.302727818
vn -0.517220199 -0.186711162 -0.835237801
vn -0.236040965 0.349010915 0.906904638
vn 0.315479279 0.856977224 -0.407508165
vn 0.914573848 -0.006704739 0.404363394
vn 0.408321679 -0.238718748 -0.881071389
vn -0.363421381 -0.817141473 0.447442442
vn -0.567134559 -0.651680648 -0.503657401
vn -0.839820683 0.484486639 -0.244896099
vn -0.193324968 0.345811605 0.918171942
vn 0.282715052 0.831039667 -0.479004413
vn 0.797158122 0.449217170 0.403413981
vn 0.797158360 -0.449215829 -0.403415114
vn 0.282716632 -0.831039131 0.479004651
vn -0.193324968 -0.345812231 -0.918171763
vn -0.863577604 -0.405040294 0.300293237
vn -0.863578320 0.405038834 -0.300293267
vn 0.395216316 -0.058185987 0.916743398
vn -0.502448142 0.807760239 0.308333009
vn 0.661799729 0.624746263 -0.414383113
vn 0.795164764 -0.543332458 -0.269263476
vn -0.777731776 -0.512793422 0.363560706
vn -0.288557321 -0.869508326 -0.400861531
vn -0.386568069 0.213093489 -0.897305012
vn -0.204717010 0.341691524 0.917244732
vn 0.287254483 0.832009137 -0.474600613
vn 0.798881114 0.464406252 0.382251024
vn 0.771429598 -0.465395659 -0.433939219
vn 0.336984277 -0.812464178 0.475755751
vn -0.200492471 -0.344787329 -0.917019367
vn -0.857334912 -0.414189786 0.305652857
vn -0.863576412 0.405043483 -0.300292790
vn -0.193326890 0.345810115 0.918172181
vn 0.797158539 0.449214965 0.403415889
vn 0.282715738 0.831038773 -0.479005635
vn 0.797157347 -0.449215859 -0.403417051
vn 0.282713443 -0.831039965 0.479004830
vn -0.863577127 -0.405041724 0.300292790
vn -0.193323523 -0.345814109 -0.918171406
vn -0.863579810 0.405036092 -0.300292671
vn -0.193325698 0.345808595 0.918172896
vn 0.282712489 0.831039667 -0.479005933
vn 0.797161520 0.449210435 0.403414786
vn 0.797160506 -0.449211717 -0.403415173
vn 0.282710552 -0.831041574 0.479003757
vn -0.193325758 -0.345812052 -0.918171704
vn -0.863576233 -0.405042470 0.300294250
vn -0.863577724 0.405040979 -0.300292313
vn 0.183245704 -0.331575572 0.925461292
vn -0.274874687 0.846098900 0.456684381
vn 0.870670676 0.431131542 0.236765966
vn 0.016811443 0.039875228 -0.999063253
vn 0.615363181 -0.700130939 -0.362139165
vn -0.811155498 -0.473930866 0.342660874
vn -0.787566006 0.387699962 -0.478986949
vn 0.013300766 -0.027018638 0.999546528
vn 0.819174528 0.381676674 0.428107291
vn 0.167620704 0.316886991 -0.933534086
vn 0.865241945 -0.427436233 -0.262020200
vn -0.799542069 -0.420533180 0.428817600
vn -0.354351610 -0.809717655 -0.467752516
vn -0.638411105 0.713631690 -0.288376689
vn -0.167620778 0.316885293 0.933534682
vn 0.638410687 0.713632107 0.288376510
vn 0.799543738 -0.420537233 -0.428810537
vn 0.354353011 -0.809715331 0.467755318
vn -0.013295875 -0.027023416 -0.999546409
vn -0.865243495 -0.427430362 0.262024671
vn -0.819174767 0.381676853 -0.428106934
vn -0.193328142 0.345808089 0.918172657
vn 0.797160804 0.449209899 0.403416842
vn 0.282711774 0.831039667 -0.479006410
vn 0.797160983 -0.449210852 -0.403415322
vn 0.282709152 -0.831041098 0.479005665
vn -0.863575935 -0.405043304 0.300294399
vn -0.193325564 -0.345811993 -0.918171763
vn -0.863578737 0.405039042 -0.300291926
vn -0.193323851 0.345817089 0.918170094
vn 0.797159970 0.449212044 0.403416038
vn 0.282713473 0.831039488 -0.479005754
vn 0.797158360 -0.449216336 -0.403414428
vn 0.282712430 -0.831039429 0.479006499
vn -0.863576233 -0.405044258 0.300291955
vn -0.193325058 -0.345814615 -0.918170810
vn -0.863577247 0.405041307 -0.300292999
usemtl field_material_05
f 5//5 9//9 10//10
f 2//2 8//8 3//3
f 6//6 5//5 10//10
f 3//3 9//9 4//4
f 2//2 1//1 7//7
f 8//8 13//13 9//9
f 7//7 1//1 11//11
f 9//9 14//14 10//10
f 7//7 12//12 8//8
f 6//6 10//10 14//14
f 12//12 17//17 13//13
f 11//11 1//1 15//15
f 14//14 17//17 18//18
f 11//11 16//16 12//12
f 6//6 14//14 18//18
f 16//16 21//21 17//17
f 15//15 1//1 19//19
f 17//17 22//22 18//18
f 15//15 20//20 16//16
f 6//6 18//18 22//22
f 20//20 25//25 21//21
f 19//19 1//1 23//23
f 22//22 25//25 26//26
f 19//19 24//24 20//20
f 6//6 22//22 26//26
f 24//24 29//29 25//25
f 23//23 1//1 27//27
f 25//25 30//30 26//26
f 23//23 28//28 24//24
f 6//6 26//26 30//30
f 28//28 33//33 29//29
f 27//27 1//1 31//31
f 30//30 33//33 34//34
f 27//27 32//32 28//28
f 6//6 30//30 34//34
f 32//32 4//4 33//33
f 31//31 1//1 2//2
f 33//33 5//5 34//34
f 31//31 3//3 32//32
f 6//6 34//34 5//5
f 35//35 38//38 37//37
f 38//38 39//39 37//37
f 40//40 41//41 39//39
f 42//42 43//43 41//41
f 36//36 44//44 40//40
f 43//43 46//46 45//45
f 46//46 35//35 45//45
f 37//37 41//41 45//45
usemtl field_material_07
f 48//48 49//49 47//47
f 49//49 52//52 51//51
f 52//52 53//53 51//51
f 53//53 56//56 55//55
f 56//56 57//57 55//55
f 58//58 59//59 57//57
f 60//60 61//61 59//59
f 61//61 64//64 63//63
usemtl field_material_05
f 69//69 68//68 67//67
f 67//67 66//66 69//69
usemtl field_material_07
f 71//71 72//72 70//70
f 73//73 74//74 72//72
f 75//75 76//76 74//74
f 76//76 79//79 78//78
f 78//78 81//81 80//80
f 81//81 82//82 80//80
f 82//82 85//85 84//84
f 85//85 86//86 84//84
usemtl field_material_05
f 90//90 89//89 91//91
f 92//92 91//91 89//89
usemtl field_material_07
f 93//93 96//96 95//95
f 96//96 97//97 95//95
f 98//98 99//99 97//97
f 99//99 102//102 101//101
f 101//101 104//104 103//103
f 103//103 106//106 105//105
f 106//106 107//107 105//105
f 108//108 109//109 107//107
f 109//109 110//110 111//111
usemtl field_material_05
f 113//113 112//112 114//114
f 115//115 114//114 112//112
f 117//117 118//118 116//116
f 118//118 121//121 120//120
f 121//121 122//122 120//120
f 123//123 124//124 122//122
f 125//125 123//123 121//121
f 125//125 126//126 124//124
f 126//126 117//117 116//116
f 122//122 124//124 126//126
usemtl field_material_23
f 129//129 130//130 128//128
f 131//131 132//132 130//130
f 133//133 134//134 132//132
f 135//135 136//136 134//134
f 137//137 138//138 136//136
f 139//139 140//140 138//138
f 141//141 142//142 140//140
f 143//143 144//144 142//142
usemtl field_material_05
f 147//147 148//148 149//149
f 150//150 149//149 148//148
usemtl field_material_23
f 152//152 153//153 151//151
f 154//154 155//155 153//153
f 156//156 157//157 155//155
f 158//158 159//159 157//157
f 160//160 161//161 159//159
f 162//162 163//163 161//161
f 164//164 165//165 163//163
f 166//166 167//167 165//165
usemtl field_material_05
f 170//170 173//173 172//172
f 171//171 170//170 172//172
usemtl field_material_23
f 175//175 176//176 174//174
f 177//177 178//178 176//176
f 178//178 181//181 180//180
f 181//181 182//182 180//180
f 183//183 184//184 182//182
f 185//185 186//186 184//184
f 187//187 188//188 186//186
f 188//188 191//191 190//190
usemtl field_material_05
f 193//193 194//194 196//196
f 195//195 196//196 194//194
f 198//198 199//199 197//197
f 200//200 201//201 199//199
f 202//202 203//203 201//201
f 204//204 205//205 203//203
f 204//204 202//202 198//198
f 206//206 207//207 205//205
f 208//208 197//197 207//207
f 199//199 203//203 207//207
usemtl field_material_23
f 209//209 212//212 211//211
f 212//212 213//213 211//211
f 214//214 215//215 213//213
f 216//216 217//217 215//215
f 217//217 220//220 219//219
f 220//220 221//221 219//219
f 221//221 224//224 223//223
f 224//224 225//225 223//223
usemtl field_material_05
f 231//231 230//230 228//228
f 230//230 229//229 228//228
usemtl field_material_23
f 233//233 234//234 232//232
f 234//234 237//237 236//236
f 237//237 238//238 236//236
f 238//238 241//241 240//240
f 241//241 242//242 240//240
f 242//242 245//245 244//244
f 245//245 246//246 244//244
f 247//247 248//248 246//246
usemtl field_material_05
f 252//252 251//251 253//253
f 254//254 253//253 251//251
usemtl field_material_23
f 256//256 257//257 255//255
f 257//257 260//260 259//259
f 259//259 262//262 261//261
f 262//262 263//263 261//261
f 264//264 265//265 263//263
f 266//266 267//267 265//265
f 267//267 270//270 269//269
f 270//270 271//271 269//269
usemtl field_material_05
f 274//274 275//275 276//276
f 277//277 276//276 275//275
f 279//279 280//280 278//278
f 281//281 282//282 280//280
f 283//283 284//284 282//282
f 284//284 287//287 286//286
f 287//287 285//285 283//283
f 287//287 288//288 286//286
f 288//288 279//279 278//278
f 284//284 286//286 288//288
usemtl field_material_07
f 290//290 293//293 292//292
f 293//293 294//294 292//292
f 295//295 296//296 294//294
f 297//297 298//298 296//296
f 299//299 300//300 298//298
f 301//301 302//302 300//300
f 302//302 305//305 304//304
f 305//305 306//306 304//304
usemtl field_material_05
f 309//309 310//310 312//312
f 311//311 312//312 310//310
usemtl field_material_07
f 314//314 315//315 313//313
f 316//316 317//317 315//315
f 318//318 319//319 317//317
f 319//319 322//322 321//321
f 322//322 323//323 321//321
f 324//324 325//325 323//323
f 326//326 327//327 325//325
f 328//328 329//329 327//327
f 329//329 330//330 331//331
usemtl field_material_05
f 334//334 333//333 335//335
f 332//332 335//335 333//333
usemtl field_material_07
f 337//337 338//338 336//336
f 338//338 341//341 340//340
f 341//341 342//342 340//340
f 343//343 344//344 342//342
f 344//344 347//347 346//346
f 346//346 349//349 348//348
f 349//349 350//350 348//348
f 350//350 353//353 352//352
usemtl field_material_05
f 358//358 357//357 355//355
f 356//356 355//355 357//357
f 360//360 361//361 359//359
f 361//361 364//364 363//363
f 363//363 366//366 365//365
f 366//366 367//367 365//365
f 368//368 366//366 364//364
f 368//368 369//369 367//367
f 369//369 360//360 359//359
f 365//365 367//367 369//369
usemtl field_material_23
f 372//372 373//373 371//371
f 374//374 375//375 373//373
f 376//376 377//377 375//375
f 378//378 379//379 377//377
f 379//379 382//382 381//381
f 382//382 383//383 381//381
f 384//384 385//385 383//383
f 386//386 387//387 385//385
usemtl field_material_05
f 392//392 393//393 390//390
f 391//391 390//390 393//393
usemtl field_material_23
f 395//395 396//396 394//394
f 396//396 399//399 398//398
f 398//398 401//401 400//400
f 401//401 402//402 400//400
f 402//402 405//405 404//404
f 405//405 406//406 404//404
f 406//406 409//409 408//408
f 408//408 411//411 410//410
f 410//410 411//411 412//412
usemtl field_material_05
f 416//416 415//415 413//413
f 415//415 414//414 413//413
usemtl field_material_23
f 418//418 419//419 417//417
f 419//419 422//422 421//421
f 421//421 424//424 423//423
f 424//424 425//425 423//423
f 426//426 427//427 425//425
f 427//427 430//430 429//429
f 429//429 432//432 431//431
f 432//432 433//433 431//431
f 433//433 434//434 435//435
usemtl field_material_05
f 436//436 439//439 438//438
f 437//437 436//436 438//438
f 441//441 442//442 440//440
f 442//442 445//445 444//444
f 444//444 447//447 446//446
f 446//446 449//449 448//448
f 441//441 449//449 445//445
f 448//448 451//451 450//450
f 450//450 441//441 440//440
f 448//448 450//450 442//442
usemtl field_material_07
f 452//452 455//455 454//454
f 455//455 456//456 454//454
f 457//457 458//458 456//456
f 458//458 461//461 460//460
f 460//460 463//463 462//462
f 463//463 464//464 462//462
f 465//465 466//466 464//464
f 466//466 469//469 468//468
f 468//468 469//469 470//470
usemtl field_material_05
f 472//472 471//471 473//473
f 474//474 473//473 471//471
usemtl field_material_07
f 475//475 478//478 477//477
f 477//477 480//480 479//479
f 479//479 482//482 481//481
f 482//482 483//483 481//481
f 484//484 485//485 483//483
f 486//486 487//487 485//485
f 487//487 490//490 489//489
f 490//490 491//491 489//489
f 491//491 492//492 493//493
usemtl field_material_05
f 494//494 496//496 495//495
f 497//497 494//494 495//495
usemtl field_material_07
f 499//499 500//500 498//498
f 500//500 503//503 502//502
f 502//502 505//505 504//504
f 504//504 507//507 506//506
f 507//507 508//508 506//506
f 508//508 511//511 510//510
f 511//511 512//512 510//510
f 512//512 515//515 514//514
usemtl field_material_05
f 518//518 517//517 519//519
f 517//517 520//520 519//519
f 523//523 524//524 521//521
f 524//524 526//526 525//525
f 525//525 528//528 527//527
f 527//527 522//522 521//521
usemtl field_material_09
f 529//529 530//530 531//531
f 529//529 531//531 532//532
f 529//529 532//532 533//533
f 529//529 533//533 534//534
f 529//529 534//534 535//535
f 529//529 535//535 530//530
f 530//530 536//536 531//531
f 531//531 538//538 532//532
f 540//540 533//533 532//532
f 549//549 534//534 533//533
f 535//535 544//544 530//530
f 545//545 537//537 536//536
f 546//546 538//538 537//537
f 550//550 542//542 534//534
f 544//544 552//552 545//545
f 553//553 546//546 537//537
f 554//554 547//547 546//546
f 555//555 539//539 547//547
f 556//556 540//540 539//539
f 540//540 557//557 548//548
f 548//548 559//559 541//541
f 541//541 560//560 549//549
f 560//560 550//550 549//549
f 542//542 561//561 543//543
f 562//562 544//544 543//543
f 563//563 552//552 551//551
f 564//564 545//545 552//552
f 566//566 555//555 554//554
f 571//571 561//561 550//550
f 562//562 573//573 551//551
f 564//564 574//574 545//545
f 574//574 553//553 545//545
f 553//553 575//575 546//546
f 575//575 565//565 546//546
f 576//576 556//556 567//567
f 568//568 578//578 558//558
f 578//578 569//569 558//558
f 569//569 579//579 559//559
f 579//579 560//560 559//559
f 579//579 570//570 560//560
f 580//580 572//572 571//571
f 572//572 573//573 562//562
f 582//582 578//578 568//568
f 570//570 584//584 580//580
f 585//585 564//564 563//563
f 587//587 574//574 564//564
f 589//589 575//575 574//574
f 590//590 565//565 575//575
f 591//591 581//581 565//565
f 592//592 576//576 567//567
f 592//592 577//577 576//576
f 594//594 582//582 577//577
f 582//582 595//595 578//578
f 596//596 569//569 578//578
f 597//597 579//579 569//569
f 599//599 583//583 579//579
f 584//584 600//600 580//580
f 580//580 601//601 572//572
f 602//602 573//573 572//572
f 603//603 563//563 573//573
f 604//604 593//593 592//592
f 605//605 591//591 590//590
f 607//607 595//595 582//582
f 610//610 600//600 584//584
f 586//586 622//622 587//587
f 605//605 613//613 591//591
f 613//613 606//606 591//591
f 615//615 593//593 604//604
f 596//596 617//617 597//597
f 609//609 618//618 599//599
f 599//599 619//619 583//583
f 619//619 610//610 583//583
f 602//602 621//621 603//603
f 621//621 585//585 603//603
f 621//621 611//611 585//585
f 622//622 612//612 588//588
f 615//615 623//623 593//593
f 593//593 623//623 594//594
f 624//624 620//620 601//601
f 625//625 611//611 621//621
f 611//611 626//626 622//622
f 626//626 612//612 622//622
f 612//612 627//627 605//605
f 605//605 628//628 613//613
f 628//628 606//606 613//613
f 628//628 614//614 606//606
f 629//629 615//615 614//614
f 629//629 623//623 615//615
f 623//623 631//631 607//607
f 607//607 631//631 608//608
f 631//631 616//616 608//608
f 616//616 632//632 617//617
f 617//617 633//633 609//609
f 609//609 633//633 618//618
f 618//618 633//633 619//619
f 633//633 610//610 619//619
f 634//634 624//624 610//610
f 634//634 620//620 624//624
f 635//635 621//621 620//620
f 625//625 636//636 626//626
f 626//626 636//636 627//627
f 627//627 636//636 628//628
f 628//628 636//636 629//629
f 629//629 636//636 630//630
f 630//630 636//636 631//631
f 631//631 636//636 632//632
f 632//632 636//636 633//633
f 633//633 636//636 634//634
f 634//634 636//636 635//635
f 635//635 636//636 625//625
usemtl field_material_05
f 649//649 640//640 641//641
f 639//639 642//642 638//638
f 640//640 642//642 641//641
f 639//639 637//637 643//643
f 642//642 644//644 641//641
f 649//649 641//641 644//644
f 642//642 643//643 644//644
f 644//644 645//645 647//647
f 643//643 637//637 646//646
f 649//649 644//644 647//647
f 643//643 645//645 644//644
f 645//645 649//649 647//647
f 645//645 637//637 648//648
f 648//648 640//640 649//649
f 648//648 639//639 638//638
f 657//657 652//652 654//654
f 651//651 653//653 652//652
f 652//652 653//653 654//654
f 653//653 655//655 656//656
f 653//653 657//657 654//654
f 656//656 655//655 660//660
f 656//656 658//658 657//657
f 655//655 650//650 659//659
f 657//657 658//658 661//661
f 659//659 662//662 660//660
f 658//658 662//662 661//661
f 659//659 650//650 651//651
f 662//662 652//652 661//661
f 657//657 661//661 652//652
f 662//662 651//651 652//652
f 664//664 665//665 667//667
f 669//669 664//664 667//667
f 666//666 665//665 664//664
f 665//665 669//669 667//667
f 665//665 663//663 668//668
f 668//668 672//672 669//669
f 668//668 671//671 670//670
f 671//671 675//675 670//670
f 672//672 675//675 674//674
f 671//671 663//663 673//673
f 669//669 672//672 674//674
f 669//669 674//674 664//664
f 675//675 666//666 664//664
f 675//675 664//664 674//674
f 673//673 663//663 666//666
f 688//688 678//678 679//679
f 687//687 678//678 677//677
f 679//679 680//680 681//681
f 676//676 680//680 678//678
f 680//680 683//683 681//681
f 679//679 681//681 683//683
f 680//680 682//682 683//683
f 683//683 685//685 686//686
f 682//682 676//676 684//684
f 679//679 683//683 686//686
f 682//682 685//685 683//683
f 679//679 686//686 688//688
f 685//685 687//687 677//677
f 685//685 688//688 686//686
f 684//684 676//676 687//687
f 690//690 691//691 693//693
f 695//695 690//690 693//693
f 701//701 691//691 690//690
f 689//689 692//692 691//691
f 692//692 695//695 693//693
f 692//692 699//699 695//695
f 694//694 689//689 696//696
f 696//696 689//689 697//697
f 697//697 702//702 698//698
f 699//699 702//702 700//700
f 695//695 699//699 700//700
f 697//697 689//689 701//701
f 695//695 700//700 690//690
f 702//702 701//701 690//690
f 702//702 690//690 700//700
usemtl field_material_29
f 704//704 706//706 705//705
f 704//704 703//703 707//707
f 709//709 705//705 706//706
f 706//706 707//707 709//709
f 707//707 703//703 708//708
f 708//708 710//710 709//709
f 703//703 705//705 710//710
f 709//709 710//710 705//705
f 712//712 711//711 713//713
f 717//717 713//713 714//714
f 713//713 711//711 714//714
f 717//717 714//714 716//716
f 711//711 716//716 714//714
f 715//715 717//717 716//716
f 715//715 711//711 712//712
f 717//717 712//712 713//713
f 719//719 722//722 724//724
f 721//721 718//718 722//722
f 722//722 718//718 723//723
f 722//722 723//723 724//724
f 724//724 720//720 719//719
f 727//727 728//728 726//726
f 728//728 729//729 730//730
f 727//727 725//725 729//729
f 729//729 731//731 730//730
f 728//728 730//730 731//731
f 728//728 731//731 726//726
f 725//725 726//726 731//731
f 737//737 733//733 735//735
f 734//734 735//735 733//733
f 734//734 732//732 736//736
f 735//735 736//736 737//737
f 736//736 732//732 738//738
f 738//738 739//739 737//737
f 737//737 739//739 733//733
f 732//732 733//733 739//739
f 741//741 740//740 742//742
f 746//746 742//742 743//743
f 742//742 740//740 743//743
f 746//746 743//743 745//745
f 740//740 745//745 743//743
f 744//744 746//746 745//745
f 744//744 740//740 741//741
f 746//746 741//741 742//742
f 752//752 748//748 750//750
f 749//749 751//751 750//750
f 749//749 750//750 748//748
f 749//749 747//747 751//751
f 750//750 751//751 752//752
f 751//751 747//747 753//753
f 753//753 754//754 752//752
f 752//752 754//754 748//748
f 747//747 748//748 754//754
f 756//756 758//758 757//757
f 756//756 755//755 759//759
f 761//761 757//757 758//758
f 758//758 759//759 761//761
f 759//759 755//755 760//760
f 760//760 762//762 761//761
f 761//761 762//762 757//757
f 755//755 757//757 762//762
f 768//768 764//764 766//766
f 765//765 766//766 764//764
f 765//765 763//763 767//767
f 766//766 767//767 768//768
f 767//767 763//763 769//769
f 769//769 770//770 768//768
f 768//768 770//770 764//764
f 763//763 764//764 770//770
f 772//772 771//771 773//773
f 773//773 775//775 774//774
f 776//776 777//777 774//774
f 776//776 771//771 772//772
f 777//777 772//772 774//774
f 779//779 781//781 780//780
f 780//780 781//781 783//783
f 778//778 783//783 781//781
f 782//782 784//784 783//783
f 780//780 783//783 784//784
f 786//786 787//787 789//789
f 786//786 785//785 788//788
f 787//787 788//788 789//789
f 788//788 785//785 790//790
f 790//790 791//791 789//789
f 785//785 786//786 791//791
f 791//791 786//786 789//789
f 793//793 792//792 796//796
f 798//798 794//794 795//795
f 793//793 795//795 794//794
f 795//795 796//796 798//798
f 796//796 792//792 797//797
f 797//797 799//799 798//798
f 798//798 799//799 794//794
f 792//792 794//794 799//799
f 801//801 803//803 802//802
f 801//801 800//800 804//804
f 806//806 802//802 803//803
f 803//803 804//804 806//806
f 804//804 800//800 805//805
f 805//805 807//807 806//806
f 806//806 807//807 802//802
f 800//800 802//802 807//807
usemtl field_material_05
f 5//5 4//4 9//9
f 2//2 7//7 8//8
f 3//3 8//8 9//9
f 8//8 12//12 13//13
f 9//9 13//13 14//14
f 7//7 11//11 12//12
f 12//12 16//16 17//17
f 14//14 13//13 17//17
f 11//11 15//15 16//16
f 16//16 20//20 21//21
f 17//17 21//21 22//22
f 15//15 19//19 20//20
f 20//20 24//24 25//25
f 22//22 21//21 25//25
f 19//19 23//23 24//24
f 24//24 28//28 29//29
f 25//25 29//29 30//30
f 23//23 27//27 28//28
f 28//28 32//32 33//33
f 30//30 29//29 33//33
f 27//27 31//31 32//32
f 32//32 3//3 4//4
f 33//33 4//4 5//5
f 31//31 2//2 3//3
f 35//35 36//36 38//38
f 38//38 40//40 39//39
f 40//40 42//42 41//41
f 42//42 44//44 43//43
f 40//40 38//38 36//36
f 36//36 46//46 44//44
f 44//44 42//42 40//40
f 43//43 44//44 46//46
f 46//46 36//36 35//35
f 45//45 35//35 37//37
f 37//37 39//39 41//41
f 41//41 43//43 45//45
usemtl field_material_07
f 48//48 50//50 49//49
f 49//49 50//50 52//52
f 52//52 54//54 53//53
f 53//53 54//54 56//56
f 56//56 58//58 57//57
f 58//58 60//60 59//59
f 60//60 62//62 61//61
f 61//61 62//62 64//64
f 64//64 65//65 63//63
usemtl field_material_05
f 69//69 66//66 68//68
f 67//67 68//68 66//66
usemtl field_material_07
f 71//71 73//73 72//72
f 73//73 75//75 74//74
f 75//75 77//77 76//76
f 76//76 77//77 79//79
f 78//78 79//79 81//81
f 81//81 83//83 82//82
f 82//82 83//83 85//85
f 85//85 87//87 86//86
f 87//87 88//88 86//86
usemtl field_material_05
f 90//90 92//92 89//89
f 92//92 90//90 91//91
usemtl field_material_07
f 93//93 94//94 96//96
f 96//96 98//98 97//97
f 98//98 100//100 99//99
f 99//99 100//100 102//102
f 101//101 102//102 104//104
f 103//103 104//104 106//106
f 106//106 108//108 107//107
f 108//108 110//110 109//109
usemtl field_material_05
f 112//112 113//113 115//115
f 114//114 115//115 113//113
f 117//117 119//119 118//118
f 118//118 119//119 121//121
f 121//121 123//123 122//122
f 123//123 125//125 124//124
f 121//121 119//119 125//125
f 119//119 117//117 125//125
f 117//117 127//127 125//125
f 125//125 127//127 126//126
f 126//126 127//127 117//117
f 126//126 116//116 118//118
f 118//118 120//120 126//126
f 120//120 122//122 126//126
usemtl field_material_23
f 129//129 131//131 130//130
f 131//131 133//133 132//132
f 133//133 135//135 134//134
f 135//135 137//137 136//136
f 137//137 139//139 138//138
f 139//139 141//141 140//140
f 141//141 143//143 142//142
f 143//143 145//145 144//144
f 145//145 146//146 144//144
usemtl field_material_05
f 147//147 150//150 148//148
f 149//149 150//150 147//147
usemtl field_material_23
f 152//152 154//154 153//153
f 154//154 156//156 155//155
f 156//156 158//158 157//157
f 158//158 160//160 159//159
f 160//160 162//162 161//161
f 162//162 164//164 163//163
f 164//164 166//166 165//165
f 166//166 168//168 167//167
f 168//168 169//169 167//167
usemtl field_material_05
f 171//171 173//173 170//170
f 173//173 171//171 172//172
usemtl field_material_23
f 175//175 177//177 176//176
f 177//177 179//179 178//178
f 178//178 179//179 181//181
f 181//181 183//183 182//182
f 183//183 185//185 184//184
f 185//185 187//187 186//186
f 187//187 189//189 188//188
f 188//188 189//189 191//191
f 191//191 192//192 190//190
usemtl field_material_05
f 193//193 195//195 194//194
f 195//195 193//193 196//196
f 198//198 200//200 199//199
f 200//200 202//202 201//201
f 202//202 204//204 203//203
f 204//204 206//206 205//205
f 202//202 200//200 198//198
f 198//198 208//208 206//206
f 206//206 204//204 198//198
f 206//206 208//208 207//207
f 208//208 198//198 197//197
f 207//207 197//197 199//199
f 199//199 201//201 203//203
f 203//203 205//205 207//207
usemtl field_material_23
f 209//209 210//210 212//212
f 212//212 214//214 213//213
f 214//214 216//216 215//215
f 216//216 218//218 217//217
f 217//217 218//218 220//220
f 220//220 222//222 221//221
f 221//221 222//222 224//224
f 224//224 226//226 225//225
f 226//226 227//227 225//225
usemtl field_material_05
f 229//229 231//231 228//228
f 230//230 231//231 229//229
usemtl field_material_23
f 233//233 235//235 234//234
f 234//234 235//235 237//237
f 237//237 239//239 238//238
f 238//238 239//239 241//241
f 241//241 243//243 242//242
f 242//242 243//243 245//245
f 245//245 247//247 246//246
f 247//247 249//249 248//248
f 249//249 250//250 248//248
usemtl field_material_05
f 252//252 254//254 251//251
f 254//254 252//252 253//253
usemtl field_material_23
f 256//256 258//258 257//257
f 257//257 258//258 260//260
f 259//259 260//260 262//262
f 262//262 264//264 263//263
f 264//264 266//266 265//265
f 266//266 268//268 267//267
f 267//267 268//268 270//270
f 270//270 272//272 271//271
f 272//272 273//273 271//271
usemtl field_material_05
f 275//275 274//274 277//277
f 276//276 277//277 274//274
f 279//279 281//281 280//280
f 281//281 283//283 282//282
f 283//283 285//285 284//284
f 284//284 285//285 287//287
f 283//283 281//281 279//279
f 279//279 289//289 283//283
f 289//289 287//287 283//283
f 287//287 289//289 288//288
f 288//288 289//289 279//279
f 288//288 278//278 284//284
f 278//278 280//280 284//284
f 280//280 282//282 284//284
usemtl field_material_07
f 290//290 291//291 293//293
f 293//293 295//295 294//294
f 295//295 297//297 296//296
f 297//297 299//299 298//298
f 299//299 301//301 300//300
f 301//301 303//303 302//302
f 302//302 303//303 305//305
f 305//305 307//307 306//306
f 307//307 308//308 306//306
usemtl field_material_05
f 309//309 311//311 310//310
f 311//311 309//309 312//312
usemtl field_material_07
f 314//314 316//316 315//315
f 316//316 318//318 317//317
f 318//318 320//320 319//319
f 319//319 320//320 322//322
f 322//322 324//324 323//323
f 324//324 326//326 325//325
f 326//326 328//328 327//327
f 328//328 330//330 329//329
usemtl field_material_05
f 332//332 334//334 335//335
f 334//334 332//332 333//333
usemtl field_material_07
f 337//337 339//339 338//338
f 338//338 339//339 341//341
f 341//341 343//343 342//342
f 343//343 345//345 344//344
f 344//344 345//345 347//347
f 346//346 347//347 349//349
f 349//349 351//351 350//350
f 350//350 351//351 353//353
f 353//353 354//354 352//352
usemtl field_material_05
f 356//356 358//358 355//355
f 358//358 356//356 357//357
f 360//360 362//362 361//361
f 361//361 362//362 364//364
f 363//363 364//364 366//366
f 366//366 368//368 367//367
f 364//364 362//362 368//368
f 362//362 360//360 368//368
f 360//360 370//370 368//368
f 368//368 370//370 369//369
f 369//369 370//370 360//360
f 369//369 359//359 365//365
f 359//359 361//361 365//365
f 361//361 363//363 365//365
usemtl field_material_23
f 372//372 374//374 373//373
f 374//374 376//376 375//375
f 376//376 378//378 377//377
f 378//378 380//380 379//379
f 379//379 380//380 382//382
f 382//382 384//384 383//383
f 384//384 386//386 385//385
f 386//386 388//388 387//387
f 388//388 389//389 387//387
usemtl field_material_05
f 390//390 391//391 392//392
f 392//392 391//391 393//393
usemtl field_material_23
f 395//395 397//397 396//396
f 396//396 397//397 399//399
f 398//398 399//399 401//401
f 401//401 403//403 402//402
f 402//402 403//403 405//405
f 405//405 407//407 406//406
f 406//406 407//407 409//409
f 408//408 409//409 411//411
usemtl field_material_05
f 414//414 416//416 413//413
f 415//415 416//416 414//414
usemtl field_material_23
f 418//418 420//420 419//419
f 419//419 420//420 422//422
f 421//421 422//422 424//424
f 424//424 426//426 425//425
f 426//426 428//428 427//427
f 427//427 428//428 430//430
f 429//429 430//430 432//432
f 432//432 434//434 433//433
usemtl field_material_05
f 437//437 439//439 436//436
f 439//439 437//437 438//438
f 441//441 443//443 442//442
f 442//442 443//443 445//445
f 444//444 445//445 447//447
f 446//446 447//447 449//449
f 445//445 443//443 441//441
f 441//441 451//451 449//449
f 449//449 447//447 445//445
f 448//448 449//449 451//451
f 450//450 451//451 441//441
f 450//450 440//440 442//442
f 442//442 444//444 446//446
f 446//446 448//448 442//442
usemtl field_material_07
f 452//452 453//453 455//455
f 455//455 457//457 456//456
f 457//457 459//459 458//458
f 458//458 459//459 461//461
f 460//460 461//461 463//463
f 463//463 465//465 464//464
f 465//465 467//467 466//466
f 466//466 467//467 469//469
usemtl field_material_05
f 472//472 474//474 471//471
f 474//474 472//472 473//473
usemtl field_material_07
f 475//475 476//476 478//478
f 477//477 478//478 480//480
f 479//479 480//480 482//482
f 482//482 484//484 483//483
f 484//484 486//486 485//485
f 486//486 488//488 487//487
f 487//487 488//488 490//490
f 490//490 492//492 491//491
usemtl field_material_05
f 496//496 497//497 495//495
f 497//497 496//496 494//494
usemtl field_material_07
f 499//499 501//501 500//500
f 500//500 501//501 503//503
f 502//502 503//503 505//505
f 504//504 505//505 507//507
f 507//507 509//509 508//508
f 508//508 509//509 511//511
f 511//511 513//513 512//512
f 512//512 513//513 515//515
f 515//515 516//516 514//514
usemtl field_material_05
f 518//518 520//520 517//517
f 520//520 518//518 519//519
f 521//521 522//522 523//523
f 523//523 526//526 524//524
f 525//525 526//526 528//528
f 526//526 523//523 522//522
f 522//522 528//528 526//526
f 527//527 528//528 522//522
f 521//521 524//524 527//527
f 524//524 525//525 527//527
usemtl field_material_09
f 530//530 544//544 536//536
f 536//536 537//537 531//531
f 531//531 537//537 538//538
f 532//532 538//538 539//539
f 532//532 539//539 540//540
f 540//540 548//548 533//533
f 548//548 541//541 533//533
f 533//533 541//541 549//549
f 534//534 542//542 535//535
f 535//535 542//542 543//543
f 535//535 543//543 544//544
f 544//544 545//545 536//536
f 546//546 547//547 538//538
f 538//538 547//547 539//539
f 549//549 550//550 534//534
f 544//544 551//551 552//552
f 545//545 553//553 537//537
f 547//547 554//554 555//555
f 555//555 556//556 539//539
f 540//540 556//556 557//557
f 557//557 558//558 548//548
f 548//548 558//558 559//559
f 541//541 559//559 560//560
f 550//550 561//561 542//542
f 543//543 561//561 562//562
f 562//562 551//551 544//544
f 563//563 564//564 552//552
f 546//546 565//565 554//554
f 554//554 565//565 566//566
f 566//566 567//567 555//555
f 555//555 567//567 556//556
f 556//556 568//568 557//557
f 557//557 568//568 558//558
f 558//558 569//569 559//559
f 560//560 570//570 550//550
f 570//570 571//571 550//550
f 561//561 571//571 572//572
f 561//561 572//572 562//562
f 573//573 563//563 551//551
f 553//553 574//574 575//575
f 576//576 577//577 556//556
f 556//556 577//577 568//568
f 570//570 580//580 571//571
f 565//565 581//581 566//566
f 566//566 581//581 567//567
f 577//577 582//582 568//568
f 579//579 583//583 570//570
f 570//570 583//583 584//584
f 585//585 586//586 564//564
f 586//586 587//587 564//564
f 587//587 588//588 574//574
f 588//588 589//589 574//574
f 589//589 590//590 575//575
f 590//590 591//591 565//565
f 581//581 592//592 567//567
f 592//592 593//593 577//577
f 593//593 594//594 577//577
f 578//578 595//595 596//596
f 596//596 597//597 569//569
f 597//597 598//598 579//579
f 598//598 599//599 579//579
f 580//580 600//600 601//601
f 572//572 601//601 602//602
f 602//602 603//603 573//573
f 603//603 585//585 563//563
f 581//581 604//604 592//592
f 589//589 605//605 590//590
f 591//591 606//606 581//581
f 581//581 606//606 604//604
f 594//594 607//607 582//582
f 607//607 608//608 595//595
f 595//595 608//608 596//596
f 597//597 609//609 598//598
f 598//598 609//609 599//599
f 583//583 610//610 584//584
f 585//585 611//611 586//586
f 586//586 611//611 622//622
f 587//587 622//622 588//588
f 588//588 612//612 589//589
f 589//589 612//612 605//605
f 606//606 614//614 604//604
f 614//614 615//615 604//604
f 608//608 616//616 596//596
f 596//596 616//616 617//617
f 597//597 617//617 609//609
f 599//599 618//618 619//619
f 610//610 624//624 600//600
f 600//600 624//624 601//601
f 601//601 620//620 602//602
f 602//602 620//620 621//621
f 594//594 623//623 607//607
f 611//611 625//625 626//626
f 626//626 627//627 612//612
f 605//605 627//627 628//628
f 628//628 629//629 614//614
f 629//629 630//630 623//623
f 623//623 630//630 631//631
f 631//631 632//632 616//616
f 617//617 632//632 633//633
f 633//633 634//634 610//610
f 634//634 635//635 620//620
f 635//635 625//625 621//621
usemtl field_material_05
f 639//639 643//643 642//642
f 640//640 638//638 642//642
f 643//643 646//646 645//645
f 645//645 648//648 649//649
f 645//645 646//646 637//637
f 648//648 638//638 640//640
f 648//648 637//637 639//639
f 651//651 650//650 653//653
f 653//653 650//650 655//655
f 653//653 656//656 657//657
f 656//656 660//660 658//658
f 655//655 659//659 660//660
f 658//658 660//660 662//662
f 662//662 659//659 651//651
f 665//665 668//668 669//669
f 665//665 666//666 663//663
f 668//668 670//670 672//672
f 668//668 663//663 671//671
f 671//671 673//673 675//675
f 672//672 670//670 675//675
f 675//675 673//673 666//666
f 688//688 677//677 678//678
f 687//687 676//676 678//678
f 679//679 678//678 680//680
f 680//680 676//676 682//682
f 682//682 684//684 685//685
f 685//685 684//684 687//687
f 685//685 677//677 688//688
f 701//701 689//689 691//691
f 693//693 691//691 692//692
f 689//689 694//694 692//692
f 692//692 696//696 699//699
f 692//692 694//694 696//696
f 699//699 696//696 698//698
f 696//696 697//697 698//698
f 699//699 698//698 702//702
f 702//702 697//697 701//701
usemtl field_material_29
f 705//705 703//703 704//704
f 704//704 707//707 706//706
f 707//707 708//708 709//709
f 708//708 703//703 710//710
f 716//716 711//711 715//715
f 715//715 712//712 717//717
f 720//720 718//718 721//721
f 720//720 721//721 719//719
f 719//719 721//721 722//722
f 724//724 723//723 720//720
f 723//723 718//718 720//720
f 726//726 725//725 727//727
f 728//728 727//727 729//729
f 729//729 725//725 731//731
f 733//733 732//732 734//734
f 734//734 736//736 735//735
f 736//736 738//738 737//737
f 738//738 732//732 739//739
f 745//745 740//740 744//744
f 744//744 741//741 746//746
f 748//748 747//747 749//749
f 751//751 753//753 752//752
f 753//753 747//747 754//754
f 757//757 755//755 756//756
f 756//756 759//759 758//758
f 759//759 760//760 761//761
f 760//760 755//755 762//762
f 764//764 763//763 765//765
f 765//765 767//767 766//766
f 767//767 769//769 768//768
f 769//769 763//763 770//770
f 772//772 773//773 774//774
f 773//773 771//771 775//775
f 775//775 776//776 774//774
f 775//775 771//771 776//776
f 776//776 772//772 777//777
f 784//784 779//779 780//780
f 784//784 778//778 779//779
f 779//779 778//778 781//781
f 783//783 778//778 782//782
f 782//782 778//778 784//784
f 786//786 788//788 787//787
f 788//788 790//790 789//789
f 790//790 785//785 791//791
f 794//794 792//792 793//793
f 793//793 796//796 795//795
f 796//796 797//797 798//798
f 797//797 792//792 799//799
f 802//802 800//800 801//801
f 801//801 804//804 803//803
f 804//804 805//805 806//806
f 805//805 800//800 807//807
